<svg width="1920" height="1080" viewBox="0 0 1920 1080" fill="none" xmlns="http://www.w3.org/2000/svg">
<mask id="mask0_1299_21142" style="mask-type:alpha" maskUnits="userSpaceOnUse" x="0" y="0" width="1920" height="1080">
<rect width="1920" height="1080" fill="#E5E7EB"/>
</mask>
<g mask="url(#mask0_1299_21142)">
<path fill-rule="evenodd" clip-rule="evenodd" d="M0 256C70.6924 256 128 198.692 128 128C128 57.3076 70.6924 0 0 0C-70.6924 0 -128 57.3076 -128 128C-128 198.692 -70.6924 256 0 256ZM0 210C45.2874 210 82 173.287 82 128C82 82.7126 45.2874 46 0 46C-45.2874 46 -82 82.7126 -82 128C-82 173.287 -45.2874 210 0 210Z" fill="#F3F4F6"/>
<path fill-rule="evenodd" clip-rule="evenodd" d="M1920 1042C1990.69 1042 2048 984.692 2048 914C2048 843.308 1990.69 786 1920 786C1849.31 786 1792 843.308 1792 914C1792 984.692 1849.31 1042 1920 1042ZM1920 996C1965.29 996 2002 959.287 2002 914C2002 868.713 1965.29 832 1920 832C1874.71 832 1838 868.713 1838 914C1838 959.287 1874.71 996 1920 996Z" fill="#F3F4F6"/>
<path fill-rule="evenodd" clip-rule="evenodd" d="M895 540C930.346 540 959 511.346 959 476C959 440.654 930.346 412 895 412C859.654 412 831 440.654 831 476C831 511.346 859.654 540 895 540ZM895 517C917.644 517 936 498.644 936 476C936 453.356 917.644 435 895 435C872.356 435 854 453.356 854 476C854 498.644 872.356 517 895 517Z" fill="#F3F4F6"/>
<path fill-rule="evenodd" clip-rule="evenodd" d="M217 957C232.464 957 245 944.464 245 929C245 913.536 232.464 901 217 901C201.536 901 189 913.536 189 929C189 944.464 201.536 957 217 957ZM217 946.938C226.907 946.938 234.938 938.907 234.938 929C234.938 919.093 226.907 911.062 217 911.062C207.093 911.062 199.062 919.093 199.062 929C199.062 938.907 207.093 946.938 217 946.938Z" fill="#F3F4F6"/>
<path fill-rule="evenodd" clip-rule="evenodd" d="M1627 203C1642.46 203 1655 190.464 1655 175C1655 159.536 1642.46 147 1627 147C1611.54 147 1599 159.536 1599 175C1599 190.464 1611.54 203 1627 203ZM1627 192.938C1636.91 192.938 1644.94 184.907 1644.94 175C1644.94 165.093 1636.91 157.062 1627 157.062C1617.09 157.062 1609.06 165.093 1609.06 175C1609.06 184.907 1617.09 192.938 1627 192.938Z" fill="#F3F4F6"/>
</g>
</svg>
