<svg width="561" height="521" viewBox="0 0 561 521" fill="none" xmlns="http://www.w3.org/2000/svg">
<path d="M340.115 124.034H337.257V45.7871C337.257 33.7762 332.482 22.2573 323.983 13.7643C315.485 5.27133 303.958 0.500015 291.938 0.5H126.046C120.095 0.499979 114.202 1.67134 108.703 3.94721C103.205 6.22308 98.209 9.55888 94.0007 13.7642C89.7925 17.9694 86.4543 22.9618 84.1768 28.4563C81.8993 33.9508 80.7271 39.8397 80.7271 45.7869V475.055C80.727 481.002 81.8992 486.891 84.1767 492.385C86.4542 497.88 89.7923 502.872 94.0006 507.077C98.2088 511.283 103.205 514.619 108.703 516.894C114.201 519.17 120.094 520.342 126.046 520.342H291.938C297.889 520.342 303.782 519.17 309.281 516.894C314.779 514.619 319.775 511.283 323.983 507.078C328.192 502.872 331.53 497.88 333.807 492.385C336.085 486.891 337.257 481.002 337.257 475.055V179.731H340.115V124.034Z" fill="#3F3D56"/>
<path d="M293.427 13.353H271.772C272.768 15.7928 273.148 18.4398 272.879 21.0609C272.61 23.6821 271.7 26.1969 270.23 28.3838C268.759 30.5707 266.772 32.3626 264.445 33.6017C262.118 34.8408 259.522 35.489 256.885 35.4892H161.848C159.211 35.489 156.615 34.8408 154.288 33.6017C151.961 32.3626 149.975 30.5707 148.504 28.3838C147.033 26.1969 146.123 23.6821 145.854 21.061C145.585 18.4398 145.965 15.7928 146.961 13.353H126.736C117.76 13.353 109.152 16.9161 102.805 23.2586C96.4578 29.601 92.8921 38.2033 92.8921 47.1728V475.811C92.8921 480.252 93.7675 484.65 95.4683 488.753C97.1691 492.856 99.662 496.584 102.805 499.725C105.947 502.865 109.678 505.357 113.784 507.056C117.89 508.756 122.291 509.631 126.736 509.631H293.427C302.403 509.631 311.011 506.067 317.358 499.725C323.705 493.383 327.27 484.78 327.27 475.811V47.1729C327.27 42.7316 326.395 38.3338 324.694 34.2306C322.993 30.1274 320.5 26.3991 317.358 23.2586C314.215 20.1182 310.484 17.627 306.378 15.9274C302.272 14.2278 297.871 13.353 293.427 13.353H293.427ZM289.789 212.201C289.782 214.522 288.856 216.746 287.214 218.388C285.571 220.029 283.345 220.954 281.023 220.961H238.653C236.33 220.954 234.104 220.029 232.462 218.388C230.819 216.746 229.893 214.522 229.887 212.201V210.011C229.893 207.69 230.819 205.465 232.462 203.824C234.104 202.183 236.33 201.258 238.653 201.251H281.023C283.345 201.258 285.571 202.183 287.214 203.824C288.856 205.465 289.782 207.69 289.789 210.011V212.201ZM294.537 173.511C294.53 175.832 293.605 178.056 291.962 179.697C290.32 181.339 288.094 182.264 285.771 182.271H133.824C131.501 182.264 129.275 181.339 127.633 179.697C125.99 178.056 125.065 175.832 125.058 173.511V171.321C125.065 168.999 125.99 166.775 127.633 165.134C129.275 163.492 131.501 162.567 133.824 162.561H285.771C288.094 162.567 290.32 163.493 291.962 165.134C293.605 166.775 294.53 168.999 294.537 171.321V173.511ZM294.537 134.82C294.53 137.142 293.605 139.366 291.962 141.007C290.32 142.649 288.094 143.574 285.771 143.581H133.824C131.501 143.574 129.275 142.649 127.633 141.007C125.99 139.366 125.065 137.142 125.058 134.82V132.63C125.065 130.309 125.99 128.085 127.633 126.444C129.275 124.802 131.501 123.877 133.824 123.87H285.771C288.094 123.877 290.32 124.802 291.962 126.444C293.605 128.085 294.53 130.309 294.537 132.63V134.82ZM294.537 96.1302C294.53 98.4515 293.605 100.676 291.962 102.317C290.32 103.958 288.094 104.884 285.771 104.89H133.824C131.501 104.884 129.275 103.958 127.633 102.317C125.99 100.676 125.065 98.4515 125.058 96.1302V93.9402C125.065 91.619 125.99 89.3948 127.633 87.7535C129.275 86.1121 131.501 85.187 133.824 85.1802H285.771C288.094 85.187 290.32 86.1121 291.962 87.7535C293.605 89.3948 294.53 91.619 294.537 93.9402V96.1302Z" fill="white"/>
<path d="M415.736 309.464H393.133V332.052H415.736V309.464Z" fill="#E6E6E6"/>
<path d="M366.496 323.177H403.63V360.284H366.496V323.177ZM402.015 324.79H368.111V358.671H402.015V324.79Z" fill="#3F3D56"/>
<path d="M22.6032 123.117H0V145.705H22.6032V123.117Z" fill="#E6E6E6"/>
<path d="M49.2403 131.991H12.1064V94.8833H49.2403V131.991ZM13.721 130.378H47.6258V96.4967H13.721V130.378Z" fill="#3F3D56"/>
<path d="M137.113 177.892C139.937 177.892 142.227 175.604 142.227 172.782C142.227 169.96 139.937 167.672 137.113 167.672C134.289 167.672 132 169.96 132 172.782C132 175.604 134.289 177.892 137.113 177.892Z" fill="#3B82F6"/>
<path d="M153.914 177.892C156.738 177.892 159.027 175.604 159.027 172.782C159.027 169.96 156.738 167.672 153.914 167.672C151.09 167.672 148.8 169.96 148.8 172.782C148.8 175.604 151.09 177.892 153.914 177.892Z" fill="#3B82F6"/>
<path d="M170.715 177.892C173.539 177.892 175.828 175.604 175.828 172.782C175.828 169.96 173.539 167.672 170.715 167.672C167.891 167.672 165.601 169.96 165.601 172.782C165.601 175.604 167.891 177.892 170.715 177.892Z" fill="#3B82F6"/>
<path d="M187.516 177.892C190.341 177.892 192.63 175.604 192.63 172.782C192.63 169.96 190.341 167.672 187.516 167.672C184.692 167.672 182.403 169.96 182.403 172.782C182.403 175.604 184.692 177.892 187.516 177.892Z" fill="#3B82F6"/>
<path d="M242.31 216.582C245.134 216.582 247.423 214.294 247.423 211.472C247.423 208.65 245.134 206.362 242.31 206.362C239.486 206.362 237.196 208.65 237.196 211.472C237.196 214.294 239.486 216.582 242.31 216.582Z" fill="#3B82F6"/>
<path d="M259.109 216.582C261.933 216.582 264.223 214.294 264.223 211.472C264.223 208.649 261.933 206.362 259.109 206.362C256.285 206.362 253.996 208.649 253.996 211.472C253.996 214.294 256.285 216.582 259.109 216.582Z" fill="#3B82F6"/>
<path d="M275.91 216.581C278.735 216.581 281.024 214.293 281.024 211.471C281.024 208.648 278.735 206.361 275.91 206.361C273.086 206.361 270.797 208.648 270.797 211.471C270.797 214.293 273.086 216.581 275.91 216.581Z" fill="#3B82F6"/>
<path d="M295.716 277.682H122.424C118.353 277.682 114.449 279.298 111.57 282.175C108.691 285.052 107.074 288.953 107.074 293.022V377.394C107.074 381.462 108.691 385.364 111.57 388.241C114.449 391.117 118.353 392.734 122.424 392.734H295.716C299.787 392.734 303.691 391.117 306.57 388.241C309.449 385.364 311.066 381.462 311.066 377.394V293.022C311.066 288.953 309.449 285.052 306.57 282.175C303.691 279.298 299.787 277.682 295.716 277.682H295.716ZM118.137 288.146C118.479 288.084 126.593 286.704 133.313 290.745C140.031 294.784 142.613 302.595 142.719 302.926L142.991 303.768L142.119 303.922C140.875 304.117 139.618 304.209 138.359 304.198C134.365 304.275 130.423 303.282 126.943 301.323C120.224 297.284 117.643 289.473 117.536 289.143L117.265 288.301L118.137 288.146ZM155.754 366.48H124.846C122.592 366.48 120.43 365.585 118.836 363.992C117.242 362.4 116.346 360.239 116.346 357.986C116.346 355.734 117.242 353.573 118.836 351.98C120.43 350.388 122.592 349.493 124.846 349.493H155.754C158.008 349.493 160.17 350.388 161.764 351.98C163.358 353.573 164.253 355.734 164.253 357.986C164.253 360.239 163.358 362.4 161.764 363.992C160.17 365.585 158.008 366.48 155.754 366.48ZM296.385 364.936C296.378 367.391 295.399 369.744 293.661 371.48C291.924 373.216 289.57 374.195 287.113 374.202H263.932C261.475 374.195 259.12 373.216 257.383 371.48C255.646 369.744 254.666 367.391 254.659 364.936V351.037C254.666 348.582 255.646 346.229 257.383 344.493C259.12 342.757 261.475 341.778 263.932 341.771H287.113C289.57 341.778 291.924 342.757 293.661 344.493C295.399 346.229 296.378 348.582 296.385 351.037L296.385 364.936Z" fill="#3B82F6"/>
<path d="M271.404 362.072H262.084C261.418 362.072 260.78 362.336 260.309 362.806C259.839 363.277 259.574 363.914 259.574 364.579C259.574 365.244 259.839 365.882 260.309 366.353C260.78 366.823 261.418 367.087 262.084 367.087H271.404C272.07 367.087 272.708 366.823 273.178 366.353C273.649 365.882 273.913 365.244 273.913 364.579C273.913 363.914 273.649 363.277 273.178 362.806C272.708 362.336 272.07 362.072 271.404 362.072Z" fill="#3F3D56"/>
<path d="M288.613 362.072H279.293C278.627 362.072 277.989 362.336 277.518 362.806C277.048 363.277 276.783 363.914 276.783 364.579C276.783 365.244 277.048 365.882 277.518 366.353C277.989 366.823 278.627 367.087 279.293 367.087H288.613C289.279 367.087 289.917 366.823 290.387 366.353C290.858 365.882 291.122 365.244 291.122 364.579C291.122 363.914 290.858 363.277 290.387 362.806C289.917 362.336 289.279 362.072 288.613 362.072Z" fill="#3F3D56"/>
<path d="M271.402 354.993H262.082C261.416 354.993 260.778 355.258 260.307 355.728C259.837 356.198 259.572 356.836 259.572 357.501C259.572 358.166 259.837 358.804 260.307 359.274C260.778 359.744 261.416 360.009 262.082 360.009H271.402C272.068 360.009 272.706 359.744 273.176 359.274C273.647 358.804 273.911 358.166 273.911 357.501C273.911 356.836 273.647 356.198 273.176 355.728C272.706 355.258 272.068 354.993 271.402 354.993Z" fill="#3F3D56"/>
<path d="M288.612 354.993H279.292C278.626 354.993 277.988 355.258 277.517 355.728C277.047 356.198 276.782 356.836 276.782 357.501C276.782 358.166 277.047 358.804 277.517 359.274C277.988 359.744 278.626 360.009 279.292 360.009H288.612C289.278 360.009 289.916 359.744 290.386 359.274C290.857 358.804 291.121 358.166 291.121 357.501C291.121 356.836 290.857 356.198 290.386 355.728C289.916 355.258 289.278 354.993 288.612 354.993H288.612Z" fill="#3F3D56"/>
<path d="M271.402 348.057H262.082C261.416 348.057 260.778 348.321 260.307 348.791C259.837 349.261 259.572 349.899 259.572 350.564C259.572 351.229 259.837 351.867 260.307 352.337C260.778 352.808 261.416 353.072 262.082 353.072H271.402C272.068 353.072 272.706 352.808 273.176 352.337C273.647 351.867 273.911 351.229 273.911 350.564C273.911 349.899 273.647 349.261 273.176 348.791C272.706 348.321 272.068 348.057 271.402 348.057Z" fill="#3F3D56"/>
<path d="M288.612 348.057H279.292C278.626 348.057 277.988 348.321 277.517 348.792C277.047 349.262 276.782 349.9 276.782 350.565C276.782 351.23 277.047 351.868 277.517 352.338C277.988 352.808 278.626 353.072 279.292 353.072H288.612C289.278 353.072 289.916 352.808 290.386 352.338C290.857 351.868 291.121 351.23 291.121 350.565C291.121 349.9 290.857 349.262 290.386 348.792C289.916 348.321 289.278 348.057 288.612 348.057H288.612Z" fill="#3F3D56"/>
<path d="M491.349 509.196H479.477L473.83 463.438H491.351L491.349 509.196Z" fill="#FFB8B8"/>
<path d="M470.997 505.806H493.892V520.211H456.582C456.582 516.391 458.101 512.727 460.804 510.025C463.508 507.324 467.174 505.806 470.997 505.806Z" fill="#2F2E41"/>
<path d="M550.416 509.196H538.545L532.897 463.438H550.418L550.416 509.196Z" fill="#FFB8B8"/>
<path d="M530.065 505.806H552.96V520.211H515.649C515.649 516.391 517.168 512.727 519.872 510.025C522.575 507.324 526.241 505.806 530.065 505.806Z" fill="#2F2E41"/>
<path d="M431.795 345.554C430.941 344.297 430.373 342.868 430.132 341.367C429.89 339.867 429.981 338.332 430.398 336.87C430.814 335.408 431.546 334.056 432.542 332.908C433.538 331.759 434.774 330.843 436.163 330.224L476.518 219.074L496.376 229.903L450.299 336.122C451.185 338.522 451.16 341.164 450.227 343.547C449.295 345.93 447.52 347.888 445.239 349.051C442.959 350.214 440.33 350.5 437.852 349.855C435.375 349.211 433.219 347.681 431.795 345.554Z" fill="#FFB8B8"/>
<path d="M544.352 366.44C543.033 365.684 541.896 364.648 541.02 363.405C540.145 362.163 539.553 360.743 539.286 359.247C539.019 357.751 539.083 356.215 539.474 354.746C539.866 353.278 540.575 351.913 541.551 350.748L529.049 233.17L551.648 234.202L556.843 349.855C558.693 351.624 559.83 354.009 560.037 356.559C560.245 359.11 559.509 361.647 557.97 363.692C556.43 365.736 554.193 367.145 551.684 367.651C549.174 368.158 546.565 367.727 544.352 366.44V366.44Z" fill="#FFB8B8"/>
<path d="M508.301 198.485C521.436 198.485 532.084 187.845 532.084 174.719C532.084 161.593 521.436 150.953 508.301 150.953C495.166 150.953 484.518 161.593 484.518 174.719C484.518 187.845 495.166 198.485 508.301 198.485Z" fill="#FFB8B8"/>
<path d="M544.2 339.699H472.499L472.585 339.141C472.714 338.308 485.364 255.499 476.034 228.408C475.098 225.745 475.18 222.831 476.265 220.226C477.35 217.621 479.361 215.509 481.911 214.296H481.912C495.247 208.021 520.845 200.293 542.451 219.046C545.63 221.851 548.113 225.357 549.703 229.286C551.293 233.216 551.946 237.46 551.611 241.685L544.2 339.699Z" fill="#374151"/>
<path d="M486.27 267.737L453.989 261.193L469.12 225.361C470.026 221.89 472.272 218.92 475.366 217.102C478.46 215.284 482.149 214.767 485.624 215.663C489.099 216.56 492.077 218.797 493.903 221.885C495.73 224.972 496.256 228.657 495.367 232.132L486.27 267.737Z" fill="#374151"/>
<path d="M527.613 279.888L525.673 235.433C524.201 227.077 528.988 219.177 536.351 217.885C543.715 216.599 550.906 222.395 552.384 230.813L559.679 272.352L527.613 279.888Z" fill="#374151"/>
<path d="M541.815 334.377C553.352 378.285 554.611 434.111 551.498 495.006L536.005 493.07L507.924 376.953L492.431 495.006L475.001 494.038C469.794 430.145 464.724 375.293 473.064 339.215L541.815 334.377Z" fill="#2F2E41"/>
<path d="M523.972 193.087C519.535 197.81 511.295 195.274 510.717 188.822C510.672 188.321 510.675 187.817 510.727 187.317C511.026 184.459 512.678 181.864 512.282 178.846C512.193 178.095 511.913 177.38 511.469 176.767C507.933 172.036 499.634 178.883 496.297 174.6C494.251 171.974 496.656 167.839 495.086 164.904C493.013 161.03 486.876 162.941 483.026 160.819C478.744 158.459 479 151.893 481.819 147.899C485.257 143.028 491.285 140.429 497.238 140.054C503.191 139.68 509.103 141.288 514.66 143.452C520.975 145.911 527.237 149.31 531.122 154.858C535.848 161.606 536.303 170.677 533.939 178.567C532.502 183.367 527.595 189.23 523.972 193.087Z" fill="#2F2E41"/>
</svg>
