<?xml version="1.0" standalone="no"?><svg xmlns:xlink="http://www.w3.org/1999/xlink" xmlns="http://www.w3.org/2000/svg" viewBox="0 0 1920 960" preserveAspectRatio="xMaxYMax slice"><g transform="scale(2.5396825396825395)"><rect x="0" y="0" width="756" height="378" fill="#F9FAFB"/><rect x="0" y="0" width="94.5" height="94.5" fill="#f2f7fe"/><path d="M 0 94.5 A 94.5 94.5 0 0 0 94.5 0 L 0 0" fill="#eaf2fc"/><rect x="94.5" y="0" width="94.5" height="94.5" fill="#F9FAFB"/><rect x="94.5" y="0" width="47.25" height="47.25" fill="#f6f8fb"/><path d="M 94.5 47.25 A 47.25 47.25 0 0 1  141.75 0 L 94.5 47.25 A 47.25 47.25 0 0 0 141.75 0" fill="#f1f7fe"/><rect x="141.75" y="0" width="47.25" height="47.25" fill="#f1f7fe"/><path d="M 141.75 47.25 A 47.25 47.25 0 0 1  189 0 L 141.75 47.25 A 47.25 47.25 0 0 0 189 0" fill="#f8fafb"/><rect x="94.5" y="47.25" width="47.25" height="47.25" fill="#e2eefd"/><path d="M 94.5 47.25 A 47.25 47.25 0 0 1 141.75 94.5 L 94.5 94.5" fill="#f3f7fe"/><rect x="141.75" y="47.25" width="47.25" height="47.25" fill="#dceafe"/><path d="M 141.75 47.25 A 47.25 47.25 0 0 1 189 94.5 L 141.75 94.5" fill="#f0f7fe"/><rect x="189" y="0" width="94.5" height="94.5" fill="#F9FAFB"/><rect x="189" y="0" width="47.25" height="47.25" fill="#eff5fc"/><path d="M 189 0 A 47.25 47.25 0 0 1 236.25 47.25 L 189 47.25" fill="#f9fafb"/><rect x="236.25" y="0" width="47.25" height="47.25" fill="#e0edfd"/><path d="M 236.25 47.25 A 47.25 47.25 0 0 0 283.5 0 L 236.25 0" fill="#f2f7fe"/><rect x="189" y="47.25" width="47.25" height="47.25" fill="#f5f8fd"/><path d="M 189 94.5 A 47.25 47.25 0 0 0 236.25 47.25 L 189 47.25" fill="#eff6ff"/><rect x="236.25" y="47.25" width="47.25" height="47.25" fill="#f5f8fd"/><path d="M 236.25 47.25 A 47.25 47.25 0 0 1  283.5 94.5 L 236.25 47.25 A 47.25 47.25 0 0 0 283.5 94.5" fill="#f0f5fc"/><rect x="283.5" y="0" width="94.5" height="94.5" fill="#F9FAFB"/><rect x="283.5" y="0" width="47.25" height="47.25" fill="#eff6ff"/><path d="M 283.5 0 A 47.25 47.25 0 0 0 330.75 47.25 L 330.75 0" fill="#ddebfe"/><rect x="330.75" y="0" width="47.25" height="47.25" fill="#ddebfe"/><path d="M 330.75 0 A 47.25 47.25 0 0 0 378 47.25 L 378 0" fill="#e3eefd"/><rect x="283.5" y="47.25" width="47.25" height="47.25" fill="#f3f7fc"/><path d="M 283.5 47.25 A 47.25 47.25 0 0 1 330.75 94.5 L 283.5 94.5" fill="#f1f7fe"/><rect x="330.75" y="47.25" width="47.25" height="47.25" fill="#f8f9fc"/><path d="M 330.75 47.25 A 47.25 47.25 0 0 0 378 94.5 L 378 47.25" fill="#f8fafb"/><rect x="378" y="0" width="94.5" height="94.5" fill="#f3f8fd"/><path d="M 378 0 A 94.5 94.5 0 0 1  472.5 94.5 L 378 0 A 94.5 94.5 0 0 0 472.5 94.5" fill="#dbeafe"/><rect x="472.5" y="0" width="94.5" height="94.5" fill="#F9FAFB"/><rect x="472.5" y="0" width="47.25" height="47.25" fill="#ddebfe"/><path d="M 472.5 0 A 47.25 47.25 0 0 0 519.75 47.25 L 519.75 0" fill="#f7f9fc"/><rect x="519.75" y="0" width="47.25" height="47.25" fill="#ecf3fc"/><path d="M 519.75 0 A 47.25 47.25 0 0 0 567 47.25 L 567 0" fill="#f7f9fb"/><rect x="472.5" y="47.25" width="47.25" height="47.25" fill="#e8f1fd"/><path d="M 472.5 47.25 A 47.25 47.25 0 0 1  519.75 94.5 L 472.5 47.25 A 47.25 47.25 0 0 0 519.75 94.5" fill="#f8fafb"/><rect x="519.75" y="47.25" width="47.25" height="47.25" fill="#f8fafb"/><path d="M 519.75 47.25 A 47.25 47.25 0 0 1 567 94.5 L 519.75 94.5" fill="#eff6ff"/><rect x="567" y="0" width="94.5" height="94.5" fill="#F9FAFB"/><rect x="567" y="0" width="47.25" height="47.25" fill="#e6f0fd"/><path d="M 567 47.25 A 47.25 47.25 0 0 0 614.25 0 L 567 0" fill="#eef4fc"/><rect x="614.25" y="0" width="47.25" height="47.25" fill="#f0f7fe"/><path d="M 614.25 0 A 47.25 47.25 0 0 1  661.5 47.25 L 614.25 0 A 47.25 47.25 0 0 0 661.5 47.25" fill="#f8f9fc"/><rect x="567" y="47.25" width="47.25" height="47.25" fill="#edf4fc"/><path d="M 567 94.5 A 47.25 47.25 0 0 1  614.25 47.25 L 567 94.5 A 47.25 47.25 0 0 0 614.25 47.25" fill="#f6f9fc"/><rect x="614.25" y="47.25" width="47.25" height="47.25" fill="#f3f7fc"/><path d="M 614.25 94.5 A 47.25 47.25 0 0 0 661.5 47.25 L 614.25 47.25" fill="#e9f2fd"/><rect x="661.5" y="0" width="94.5" height="94.5" fill="#F9FAFB"/><rect x="661.5" y="0" width="47.25" height="47.25" fill="#f7f9fc"/><path d="M 661.5 0 A 47.25 47.25 0 0 1 708.75 47.25 L 661.5 47.25" fill="#e9f1fd"/><rect x="708.75" y="0" width="47.25" height="47.25" fill="#eaf2fc"/><path d="M 708.75 47.25 A 47.25 47.25 0 0 1  756 0 L 756 47.25" fill="#e0edfe"/><rect x="661.5" y="47.25" width="47.25" height="47.25" fill="#f5f8fd"/><path d="M 661.5 47.25 A 47.25 47.25 0 0 0 708.75 94.5 L 708.75 47.25" fill="#f2f7fc"/><rect x="708.75" y="47.25" width="47.25" height="47.25" fill="#f0f6ff"/><path d="M 708.75 47.25 A 47.25 47.25 0 0 0 756 94.5 L 756 47.25" fill="#f8fafb"/><rect x="0" y="94.5" width="94.5" height="94.5" fill="#edf4fc"/><path d="M 0 189 A 94.5 94.5 0 0 1  94.5 94.5 L 94.5 189" fill="#ecf3fc"/><rect x="94.5" y="94.5" width="94.5" height="94.5" fill="#f5f8fd"/><path d="M 94.5 94.5 A 94.5 94.5 0 0 1  189 189 L 94.5 94.5 A 94.5 94.5 0 0 0 189 189" fill="#f7f9fc"/><rect x="189" y="94.5" width="94.5" height="94.5" fill="#F9FAFB"/><rect x="189" y="94.5" width="47.25" height="47.25" fill="#f6f9fc"/><path d="M 189 94.5 A 47.25 47.25 0 0 1 236.25 141.75 L 189 141.75" fill="#f4f8fd"/><rect x="236.25" y="94.5" width="47.25" height="47.25" fill="#eaf2fc"/><path d="M 236.25 94.5 A 47.25 47.25 0 0 1  283.5 141.75 L 236.25 94.5 A 47.25 47.25 0 0 0 283.5 141.75" fill="#f6f9fc"/><rect x="189" y="141.75" width="47.25" height="47.25" fill="#eaf2fd"/><path d="M 189 189 A 47.25 47.25 0 0 1  236.25 141.75 L 189 189 A 47.25 47.25 0 0 0 236.25 141.75" fill="#eaf2fc"/><rect x="236.25" y="141.75" width="47.25" height="47.25" fill="#f8fafb"/><path d="M 236.25 141.75 A 47.25 47.25 0 0 1 283.5 189 L 236.25 189" fill="#f4f8fd"/><rect x="283.5" y="94.5" width="94.5" height="94.5" fill="#f9fafb"/><path d="M 283.5 189 A 94.5 94.5 0 0 0 378 94.5 L 283.5 94.5" fill="#f5f8fd"/><rect x="378" y="94.5" width="94.5" height="94.5" fill="#F9FAFB"/><rect x="378" y="94.5" width="47.25" height="47.25" fill="#e0edfe"/><path d="M 378 141.75 A 47.25 47.25 0 0 1  425.25 94.5 L 425.25 141.75" fill="#f3f8fd"/><rect x="425.25" y="94.5" width="47.25" height="47.25" fill="#f5f8fd"/><path d="M 425.25 141.75 A 47.25 47.25 0 0 0 472.5 94.5 L 425.25 94.5" fill="#f1f6fc"/><rect x="378" y="141.75" width="47.25" height="47.25" fill="#f9fafb"/><path d="M 378 189 A 47.25 47.25 0 0 1  425.25 141.75 L 378 189 A 47.25 47.25 0 0 0 425.25 141.75" fill="#eff6ff"/><rect x="425.25" y="141.75" width="47.25" height="47.25" fill="#ecf3fc"/><path d="M 425.25 189 A 47.25 47.25 0 0 1  472.5 141.75 L 472.5 189" fill="#f4f7fc"/><rect x="472.5" y="94.5" width="94.5" height="94.5" fill="#f1f7fe"/><path d="M 472.5 94.5 A 94.5 94.5 0 0 1 567 189 L 472.5 189" fill="#f1f7fe"/><rect x="567" y="94.5" width="94.5" height="94.5" fill="#F9FAFB"/><rect x="567" y="94.5" width="47.25" height="47.25" fill="#f5f9fc"/><path d="M 567 94.5 A 47.25 47.25 0 0 1  614.25 141.75 L 567 94.5 A 47.25 47.25 0 0 0 614.25 141.75" fill="#f5f8fb"/><rect x="614.25" y="94.5" width="47.25" height="47.25" fill="#f6f9fc"/><path d="M 614.25 141.75 A 47.25 47.25 0 0 1  661.5 94.5 L 614.25 141.75 A 47.25 47.25 0 0 0 661.5 94.5" fill="#e4effd"/><rect x="567" y="141.75" width="47.25" height="47.25" fill="#e1edfd"/><path d="M 567 189 A 47.25 47.25 0 0 1  614.25 141.75 L 567 189 A 47.25 47.25 0 0 0 614.25 141.75" fill="#f6f9fb"/><rect x="614.25" y="141.75" width="47.25" height="47.25" fill="#dcebfe"/><path d="M 614.25 141.75 A 47.25 47.25 0 0 1 661.5 189 L 614.25 189" fill="#f3f8fd"/><rect x="661.5" y="94.5" width="94.5" height="94.5" fill="#f5f9fc"/><path d="M 661.5 94.5 A 94.5 94.5 0 0 0 756 189 L 756 94.5" fill="#f5f8fb"/><rect x="0" y="189" width="94.5" height="94.5" fill="#F9FAFB"/><rect x="0" y="189" width="47.25" height="47.25" fill="#f3f8fd"/><path d="M 0 236.25 A 47.25 47.25 0 0 1  47.25 189 L 0 236.25 A 47.25 47.25 0 0 0 47.25 189" fill="#f2f6fc"/><rect x="47.25" y="189" width="47.25" height="47.25" fill="#dceafe"/><path d="M 47.25 189 A 47.25 47.25 0 0 1 94.5 236.25 L 47.25 236.25" fill="#f3f7fc"/><rect x="0" y="236.25" width="47.25" height="47.25" fill="#e5effd"/><path d="M 0 283.5 A 47.25 47.25 0 0 1  47.25 236.25 L 47.25 283.5" fill="#e1edfd"/><rect x="47.25" y="236.25" width="47.25" height="47.25" fill="#f2f7fe"/><path d="M 47.25 283.5 A 47.25 47.25 0 0 1  94.5 236.25 L 94.5 283.5" fill="#eef4fc"/><rect x="94.5" y="189" width="94.5" height="94.5" fill="#e7f0fd"/><path d="M 94.5 189 A 94.5 94.5 0 0 1  189 283.5 L 94.5 189 A 94.5 94.5 0 0 0 189 283.5" fill="#ebf3fc"/><rect x="189" y="189" width="94.5" height="94.5" fill="#F9FAFB"/><rect x="189" y="189" width="47.25" height="47.25" fill="#f4f7fc"/><path d="M 189 189 A 47.25 47.25 0 0 0 236.25 236.25 L 236.25 189" fill="#e2eefd"/><rect x="236.25" y="189" width="47.25" height="47.25" fill="#f7f9fc"/><path d="M 236.25 236.25 A 47.25 47.25 0 0 0 283.5 189 L 236.25 189" fill="#f8fafb"/><rect x="189" y="236.25" width="47.25" height="47.25" fill="#f4f8fd"/><path d="M 189 283.5 A 47.25 47.25 0 0 0 236.25 236.25 L 189 236.25" fill="#e8f1fd"/><rect x="236.25" y="236.25" width="47.25" height="47.25" fill="#ddebfe"/><path d="M 236.25 283.5 A 47.25 47.25 0 0 0 283.5 236.25 L 236.25 236.25" fill="#f1f6fc"/><rect x="283.5" y="189" width="94.5" height="94.5" fill="#f4f8fb"/><path d="M 283.5 283.5 A 94.5 94.5 0 0 0 378 189 L 283.5 189" fill="#f5f8fd"/><rect x="378" y="189" width="94.5" height="94.5" fill="#f1f7fe"/><path d="M 378 189 A 94.5 94.5 0 0 1  472.5 283.5 L 378 189 A 94.5 94.5 0 0 0 472.5 283.5" fill="#f4f8fd"/><rect x="472.5" y="189" width="94.5" height="94.5" fill="#eff6ff"/><path d="M 472.5 283.5 A 94.5 94.5 0 0 1  567 189 L 472.5 283.5 A 94.5 94.5 0 0 0 567 189" fill="#f9fafb"/><rect x="567" y="189" width="94.5" height="94.5" fill="#deecfe"/><path d="M 567 189 A 94.5 94.5 0 0 1 661.5 283.5 L 567 283.5" fill="#f0f5fc"/><rect x="661.5" y="189" width="94.5" height="94.5" fill="#e2eefd"/><path d="M 661.5 283.5 A 94.5 94.5 0 0 0 756 189 L 661.5 189" fill="#e5effd"/><rect x="0" y="283.5" width="94.5" height="94.5" fill="#f0f7fe"/><path d="M 0 378 A 94.5 94.5 0 0 1  94.5 283.5 L 94.5 378" fill="#e4effd"/><rect x="94.5" y="283.5" width="94.5" height="94.5" fill="#f5f9fc"/><path d="M 94.5 378 A 94.5 94.5 0 0 0 189 283.5 L 94.5 283.5" fill="#e7f0fd"/><rect x="189" y="283.5" width="94.5" height="94.5" fill="#f9fafb"/><path d="M 189 283.5 A 94.5 94.5 0 0 1 283.5 378 L 189 378" fill="#f3f7fc"/><rect x="283.5" y="283.5" width="94.5" height="94.5" fill="#f4f8fb"/><path d="M 283.5 283.5 A 94.5 94.5 0 0 0 378 378 L 378 283.5" fill="#dbeafe"/><rect x="378" y="283.5" width="94.5" height="94.5" fill="#f6f9fb"/><path d="M 378 283.5 A 94.5 94.5 0 0 1 472.5 378 L 378 378" fill="#f7f9fb"/><rect x="472.5" y="283.5" width="94.5" height="94.5" fill="#F9FAFB"/><rect x="472.5" y="283.5" width="47.25" height="47.25" fill="#e4effd"/><path d="M 472.5 330.75 A 47.25 47.25 0 0 1  519.75 283.5 L 472.5 330.75 A 47.25 47.25 0 0 0 519.75 283.5" fill="#f2f7fe"/><rect x="519.75" y="283.5" width="47.25" height="47.25" fill="#f8f9fb"/><path d="M 519.75 283.5 A 47.25 47.25 0 0 1  567 330.75 L 519.75 283.5 A 47.25 47.25 0 0 0 567 330.75" fill="#f5f8fb"/><rect x="472.5" y="330.75" width="47.25" height="47.25" fill="#f3f8fd"/><path d="M 472.5 330.75 A 47.25 47.25 0 0 0 519.75 378 L 519.75 330.75" fill="#eef4fc"/><rect x="519.75" y="330.75" width="47.25" height="47.25" fill="#f0f6ff"/><path d="M 519.75 330.75 A 47.25 47.25 0 0 1 567 378 L 519.75 378" fill="#eff4fc"/><rect x="567" y="283.5" width="94.5" height="94.5" fill="#f8f9fc"/><path d="M 567 283.5 A 94.5 94.5 0 0 1  661.5 378 L 567 283.5 A 94.5 94.5 0 0 0 661.5 378" fill="#f3f7fc"/><rect x="661.5" y="283.5" width="94.5" height="94.5" fill="#f7f9fc"/><path d="M 661.5 378 A 94.5 94.5 0 0 1  756 283.5 L 661.5 378 A 94.5 94.5 0 0 0 756 283.5" fill="#f4f8fd"/></g></svg>