<svg width="560" height="372" viewBox="0 0 560 372" fill="none" xmlns="http://www.w3.org/2000/svg">
<g clip-path="url(#clip0_1621_22174)">
<path d="M200.872 214.077C220.064 180.334 256.671 154.424 295.424 156.92C266.839 187.99 250.17 228.164 248.367 270.335C247.731 286.601 248.718 304.759 237.913 316.939C231.189 324.518 220.913 328.188 210.808 328.958C200.704 329.728 190.601 327.903 180.632 326.086L178.213 326.828C177.293 288.025 181.681 247.82 200.872 214.077Z" fill="#F0F0F0"/>
<path d="M295.481 157.733C266.825 171.522 242.389 194.55 227.389 222.635C224.146 228.707 221.385 235.149 220.181 241.96C218.976 248.774 219.818 255.26 222.146 261.732C224.275 267.648 227.138 273.454 227.79 279.785C228.478 286.457 226.022 292.697 221.6 297.648C216.19 303.707 208.925 307.462 201.692 310.886C193.662 314.689 185.26 318.511 179.572 325.608C178.883 326.468 177.589 325.348 178.277 324.49C188.173 312.143 205.112 309.822 216.858 299.876C222.339 295.235 226.455 288.914 226.195 281.509C225.968 275.033 223.021 269.044 220.813 263.072C218.496 256.801 217.34 250.496 218.171 243.811C219.021 236.972 221.536 230.409 224.61 224.281C231.541 210.46 241.027 197.772 251.893 186.803C264.382 174.196 278.937 163.816 294.927 156.114C295.917 155.638 296.465 157.26 295.481 157.733V157.733Z" fill="white"/>
<path d="M231.783 213.249C227.39 210.039 224.281 205.372 223.013 200.082C221.745 194.792 222.399 189.223 224.859 184.371C225.36 183.391 226.908 184.123 226.406 185.105C224.107 189.619 223.498 194.806 224.689 199.73C225.88 204.653 228.793 208.989 232.901 211.954C233.793 212.6 232.67 213.891 231.783 213.249V213.249Z" fill="white"/>
<path d="M220.671 258.874C231.679 257.266 241.677 251.571 248.67 242.922C249.363 242.065 250.657 243.184 249.966 244.04C242.672 253.026 232.256 258.932 220.796 260.58C219.704 260.736 219.585 259.03 220.671 258.874V258.874Z" fill="white"/>
<path d="M265.227 176.301C266.668 177.897 268.483 179.111 270.509 179.833C272.535 180.555 274.709 180.762 276.835 180.437C277.925 180.267 278.043 181.974 276.961 182.143C274.61 182.491 272.21 182.259 269.969 181.466C267.729 180.674 265.717 179.345 264.109 177.596C263.944 177.443 263.843 177.234 263.826 177.01C263.81 176.786 263.879 176.564 264.02 176.389C264.169 176.218 264.38 176.113 264.606 176.097C264.832 176.08 265.055 176.153 265.227 176.301Z" fill="white"/>
<path d="M372.529 263.368C371.851 263.493 371.174 263.619 370.49 263.757C361.391 265.492 352.448 267.963 343.748 271.146C343.072 271.381 342.39 271.63 341.722 271.884C320.845 279.775 301.616 291.472 285.012 306.379C278.41 312.317 272.27 318.748 266.644 325.617C258.875 335.104 251.207 346.008 241.056 352.194C240.004 352.851 238.912 353.443 237.787 353.965L179.306 329.72C179.201 329.598 179.09 329.489 178.984 329.367L176.604 328.506C176.87 328.131 177.153 327.749 177.419 327.374C177.572 327.156 177.738 326.944 177.891 326.726C177.997 326.582 178.104 326.439 178.191 326.303C178.226 326.255 178.262 326.208 178.292 326.173C178.379 326.037 178.475 325.921 178.557 325.799C180.135 323.655 181.73 321.518 183.344 319.389C183.349 319.376 183.349 319.376 183.368 319.368C195.702 303.177 209.496 287.873 225.176 275.148C225.648 274.765 226.125 274.369 226.623 273.997C233.723 268.3 241.277 263.193 249.209 258.727C253.56 256.295 258.031 254.085 262.606 252.105C274.437 247.012 286.995 243.81 299.821 242.618C325.389 240.245 351.433 246.072 371.043 262.126C371.544 262.537 372.033 262.943 372.529 263.368Z" fill="#F0F0F0"/>
<path d="M372.09 264.055C340.903 257.82 307.521 261.502 278.627 274.9C272.38 277.797 266.296 281.278 261.231 285.992C256.165 290.707 252.93 296.392 250.89 302.961C249.026 308.966 247.815 315.324 244.523 320.772C241.053 326.514 235.333 330.017 228.82 331.31C220.851 332.892 212.788 331.517 204.951 329.899C196.248 328.103 187.238 326.099 178.421 328.342C177.353 328.614 176.994 326.942 178.06 326.67C193.399 322.767 208.322 331.107 223.692 330.235C230.864 329.828 237.957 327.258 242.21 321.188C245.93 315.881 247.184 309.326 249.019 303.229C250.946 296.828 253.821 291.098 258.512 286.26C263.31 281.311 269.272 277.584 275.417 274.541C289.276 267.677 304.493 263.255 319.776 261.036C337.342 258.485 355.215 258.956 372.622 262.429C373.7 262.644 373.16 264.269 372.09 264.055V264.055Z" fill="white"/>
<path d="M287.789 270.05C286.216 264.843 286.545 259.246 288.719 254.259C290.893 249.272 294.769 245.22 299.656 242.826C300.647 242.345 301.441 243.861 300.449 244.342C295.894 246.563 292.284 250.338 290.269 254.986C288.254 259.634 287.968 264.849 289.462 269.689C289.786 270.741 288.111 271.096 287.789 270.05Z" fill="white"/>
<path d="M251.435 299.792C261.193 305.133 272.606 306.601 283.399 303.905C284.468 303.637 284.828 305.309 283.76 305.577C272.524 308.362 260.649 306.81 250.507 301.23C249.541 300.697 250.474 299.262 251.435 299.792V299.792Z" fill="white"/>
<path d="M336.749 260.674C336.938 262.816 337.656 264.877 338.839 266.673C340.022 268.469 341.632 269.943 343.526 270.963C344.499 271.483 343.565 272.917 342.598 272.4C340.512 271.264 338.735 269.634 337.424 267.653C336.112 265.672 335.307 263.4 335.076 261.035C335.036 260.814 335.081 260.586 335.203 260.398C335.325 260.209 335.514 260.073 335.732 260.019C335.954 259.972 336.185 260.015 336.376 260.138C336.566 260.26 336.7 260.453 336.749 260.674V260.674Z" fill="white"/>
<path d="M261.127 303.368C252.937 263.786 242.699 250.59 242.699 250.59L238.788 247.558L234.085 243.907L234.107 243.437L232.992 243.058L232.73 242.855L232.3 242.525L232.231 242.599L232.085 242.75L210.802 235.519L183.801 226.352L171.298 210.108C169.261 207.463 166.64 205.325 163.638 203.861C160.637 202.398 157.337 201.649 153.997 201.674L114.066 201.969C108.667 202.009 103.478 204.066 99.5191 207.737L73.2727 232.07L32.3757 251.593L32.3067 251.524L31.8773 251.83L25.5583 254.85L25.8191 256.207L21.908 259.028C21.908 259.028 11.6704 271.307 3.48026 308.137C1.39678 317.508 0.371214 337.611 0.00104027 362.383C-0.0175535 363.636 0.21328 364.88 0.680113 366.043C1.14695 367.206 1.84047 368.265 2.72035 369.158C3.60024 370.051 4.64893 370.76 5.80545 371.244C6.96198 371.728 8.20326 371.978 9.45713 371.978H227.896V371.978H255.16C256.413 371.978 257.653 371.728 258.809 371.245C259.965 370.761 261.013 370.053 261.893 369.161C262.772 368.269 263.466 367.212 263.934 366.05C264.401 364.888 264.633 363.645 264.616 362.392C264.254 335.437 263.229 313.531 261.127 303.368Z" fill="#3F3D56"/>
<path d="M289.154 34.5182C280.655 34.5182 272.505 37.8926 266.495 43.899C260.486 49.9055 257.11 58.052 257.11 66.5464C257.11 75.0408 260.486 83.1873 266.495 89.1938C272.505 95.2003 280.655 98.5747 289.154 98.5747H527.956C536.455 98.5747 544.605 95.2003 550.615 89.1938C556.624 83.1873 560 75.0408 560 66.5464C560 58.052 556.624 49.9055 550.615 43.899C544.605 37.8926 536.455 34.5182 527.956 34.5182H289.154Z" fill="#E5E5E5"/>
<path d="M289.153 41.0001C282.375 41.0001 275.874 43.6915 271.081 48.4824C266.288 53.2733 263.595 59.7711 263.595 66.5464C263.595 73.3217 266.288 79.8195 271.081 84.6104C275.874 89.4013 282.375 92.0927 289.153 92.0927H527.956C534.735 92.0927 541.236 89.4013 546.029 84.6104C550.822 79.8195 553.515 73.3217 553.515 66.5464C553.515 59.7711 550.822 53.2733 546.029 48.4824C541.236 43.6915 534.735 41.0001 527.956 41.0001H289.153Z" fill="white"/>
<path d="M140.303 186.68C169.195 186.68 192.617 163.269 192.617 134.391C192.617 105.513 169.195 82.1021 140.303 82.1021C111.41 82.1021 87.9883 105.513 87.9883 134.391C87.9883 163.269 111.41 186.68 140.303 186.68Z" fill="#9E616A"/>
<path d="M126.92 184.119C126.696 183.628 126.473 183.134 126.251 182.639C126.337 182.642 126.421 182.654 126.507 182.656L126.92 184.119Z" fill="#2F2E41"/>
<path d="M86.5335 84.4799C89.1795 82.3702 92.2719 80.4291 95.6548 80.5382C99.0376 80.6472 102.468 83.701 101.767 87.0107C107.981 76.0143 117.871 67.5567 129.702 63.1227C141.533 58.6886 154.548 58.5613 166.463 62.7631C174.871 65.728 183.116 71.6596 185.048 80.3594C185.544 82.5926 185.65 85.0414 187.045 86.8549C188.804 89.1413 192.17 89.6586 194.941 88.8542C194.969 88.8462 194.996 88.838 195.024 88.8298C195.492 88.67 195.997 88.6543 196.474 88.7847C196.952 88.9151 197.379 89.1856 197.7 89.5612C198.022 89.9369 198.224 90.4003 198.279 90.8917C198.334 91.383 198.241 91.8797 198.01 92.3173L195.631 96.752C198.63 97.4201 201.746 97.3539 204.714 96.5589C205.207 96.4297 205.728 96.4561 206.205 96.6344C206.683 96.8128 207.093 97.1345 207.381 97.5553C207.668 97.976 207.818 98.4754 207.81 98.9847C207.802 99.4941 207.637 99.9885 207.337 100.4C199.492 111.165 186.387 118.116 173.013 118.035C163.508 117.977 153.905 114.702 144.654 116.887C141.075 117.732 137.731 119.368 134.867 121.673C132.003 123.978 129.692 126.896 128.103 130.21C126.514 133.525 125.688 137.153 125.685 140.829C125.682 144.504 126.502 148.134 128.085 151.451C125.243 148.344 119.75 149.08 116.843 152.126C113.936 155.172 113.183 159.719 113.476 163.918C113.924 170.342 116.442 176.394 119.096 182.284C96.8424 181.584 75.7938 165.981 68.7089 144.877C61.5942 123.685 69.0506 98.4198 86.5335 84.4799Z" fill="#2F2E41"/>
<path opacity="0.2" d="M51.4907 291.418L66.1637 371.212L74.9678 371.978L51.4907 291.418Z" fill="black"/>
<path opacity="0.2" d="M213.116 285.4L198.443 371.154L189.639 371.978L213.116 285.4Z" fill="black"/>
<path d="M99.0487 57.6254C96.2353 58.7996 93.2997 57.5127 92.0686 54.5658C90.8186 51.5738 91.9861 48.5366 94.8445 47.3436C97.7032 46.1505 100.587 47.4404 101.857 50.4807C103.108 53.4753 101.953 56.4132 99.0487 57.6254ZM93.6595 41.4544L91.4226 42.388C90.8638 42.6184 90.2387 42.6309 89.6712 42.4228C89.1037 42.2147 88.6349 41.8013 88.3577 41.2644L88.2471 41.0481C85.8402 36.7094 85.5646 31.4364 87.4323 25.3837C89.1625 19.9542 89.8812 16.1356 88.4359 12.6762C86.765 8.67643 83.1968 7.42351 78.6467 9.23851C76.8819 9.97506 76.3203 9.96332 74.9315 11.3404C74.6294 11.6435 74.2693 11.8828 73.8727 12.0439C73.4761 12.205 73.0511 12.2846 72.6231 12.278C72.2093 12.2731 71.8007 12.185 71.4217 12.0189C71.0427 11.8528 70.701 11.6121 70.4171 11.3112C69.8701 10.7313 69.5636 9.96551 69.5596 9.16851C69.5556 8.37151 69.8543 7.60268 70.3954 7.01728C72.7298 4.57488 75.5453 2.64263 78.6643 1.34247C88.4406 -2.73782 93.3621 3.28614 95.6142 8.67702C97.8171 13.9499 96.5779 18.8423 94.5869 25.1784C92.9184 30.4433 93.0156 34.3445 94.9109 38.2236C95.0478 38.5168 95.1239 38.8347 95.1348 39.1581C95.1456 39.4815 95.0909 39.8037 94.9741 40.1055C94.8572 40.4073 94.6805 40.6823 94.4546 40.9141C94.2287 41.1459 93.9583 41.3296 93.6595 41.4544L93.6595 41.4544Z" fill="#3B82F6"/>
<path d="M341.902 81.8217H294.389C294.238 81.8227 294.088 81.7939 293.949 81.7369C293.809 81.6799 293.682 81.5958 293.575 81.4894C293.468 81.3831 293.383 81.2567 293.325 81.1174C293.267 80.9781 293.237 80.8287 293.237 80.6778C293.237 80.527 293.267 80.3776 293.325 80.2383C293.383 80.099 293.468 79.9726 293.575 79.8662C293.682 79.7599 293.809 79.6758 293.949 79.6188C294.088 79.5618 294.238 79.533 294.389 79.534H341.902C342.204 79.536 342.493 79.6574 342.706 79.8717C342.919 80.086 343.039 80.3758 343.039 80.6778C343.039 80.9799 342.919 81.2696 342.706 81.4839C342.493 81.6982 342.204 81.8197 341.902 81.8217Z" fill="#3B82F6"/>
<path d="M402.175 82.203H354.662C354.511 82.204 354.361 82.1752 354.222 82.1181C354.082 82.0611 353.955 81.977 353.848 81.8707C353.741 81.7644 353.656 81.6379 353.598 81.4986C353.54 81.3593 353.51 81.21 353.51 81.0591C353.51 80.9082 353.54 80.7588 353.598 80.6195C353.656 80.4803 353.741 80.3538 353.848 80.2475C353.955 80.1412 354.082 80.0571 354.222 80.0001C354.361 79.943 354.511 79.9142 354.662 79.9152H402.175C402.326 79.9142 402.475 79.943 402.615 80.0001C402.755 80.0571 402.882 80.1412 402.989 80.2475C403.096 80.3538 403.181 80.4803 403.239 80.6195C403.297 80.7588 403.327 80.9082 403.327 81.0591C403.327 81.21 403.297 81.3593 403.239 81.4986C403.181 81.6379 403.096 81.7644 402.989 81.8707C402.882 81.977 402.755 82.0611 402.615 82.1181C402.475 82.1752 402.326 82.204 402.175 82.203V82.203Z" fill="#3B82F6"/>
<path d="M462.448 82.5843H414.935C414.633 82.5822 414.344 82.4608 414.131 82.2465C413.918 82.0322 413.798 81.7424 413.798 81.4404C413.798 81.1384 413.918 80.8486 414.131 80.6343C414.344 80.42 414.633 80.2986 414.935 80.2965H462.448C462.599 80.2955 462.748 80.3243 462.888 80.3814C463.028 80.4384 463.155 80.5225 463.262 80.6288C463.369 80.7351 463.454 80.8616 463.512 81.0008C463.57 81.1401 463.6 81.2895 463.6 81.4404C463.6 81.5913 463.57 81.7407 463.512 81.8799C463.454 82.0192 463.369 82.1457 463.262 82.252C463.155 82.3583 463.028 82.4424 462.888 82.4994C462.748 82.5565 462.599 82.5853 462.448 82.5843H462.448Z" fill="#3B82F6"/>
<path d="M522.721 82.9655H475.208C474.906 82.9635 474.617 82.8421 474.404 82.6278C474.191 82.4135 474.071 82.1237 474.071 81.8217C474.071 81.5196 474.191 81.2299 474.404 81.0156C474.617 80.8013 474.906 80.6799 475.208 80.6778H522.721C523.023 80.6799 523.312 80.8013 523.525 81.0156C523.738 81.2299 523.857 81.5196 523.857 81.8217C523.857 82.1237 523.738 82.4135 523.525 82.6278C523.312 82.8421 523.023 82.9635 522.721 82.9655Z" fill="#3B82F6"/>
<path d="M318.041 71.2945C322.918 71.2945 326.872 67.3429 326.872 62.4682C326.872 57.5936 322.918 53.6419 318.041 53.6419C313.164 53.6419 309.21 57.5936 309.21 62.4682C309.21 67.3429 313.164 71.2945 318.041 71.2945Z" fill="#3B82F6"/>
<path d="M378.678 71.2945C383.555 71.2945 387.508 67.3429 387.508 62.4682C387.508 57.5936 383.555 53.6419 378.678 53.6419C373.801 53.6419 369.847 57.5936 369.847 62.4682C369.847 67.3429 373.801 71.2945 378.678 71.2945Z" fill="#3B82F6"/>
<path d="M439.315 71.2945C444.192 71.2945 448.146 67.3429 448.146 62.4682C448.146 57.5936 444.192 53.6419 439.315 53.6419C434.438 53.6419 430.484 57.5936 430.484 62.4682C430.484 67.3429 434.438 71.2945 439.315 71.2945Z" fill="#3B82F6"/>
<path d="M499.952 71.2945C504.829 71.2945 508.782 67.3429 508.782 62.4682C508.782 57.5936 504.829 53.6419 499.952 53.6419C495.075 53.6419 491.121 57.5936 491.121 62.4682C491.121 67.3429 495.075 71.2945 499.952 71.2945Z" fill="#3B82F6"/>
</g>
<defs>
<clipPath id="clip0_1621_22174">
<rect width="560" height="371.978" fill="white"/>
</clipPath>
</defs>
</svg>
