<svg width="1433" height="893" viewBox="0 0 1433 893" fill="none" xmlns="http://www.w3.org/2000/svg">
<path fill-rule="evenodd" clip-rule="evenodd" d="M133.746 272.368C161.511 223.871 195.905 180.377 234.733 144.31L849.089 286.895L311.301 86.5124C386.715 41.4789 471.389 23.3095 553.861 44.6635L554.132 44.3807C638.339 50.4008 705.719 71.0266 778.43 93.2841C814.602 104.357 852.094 115.833 893.632 126.116C963.186 143.277 1033.1 161.408 1099.71 194.976C1164.98 227.87 1227.52 276.678 1273.66 345.985L692.929 410.86L1312.46 421.62C1316.67 433.182 1320.23 445.084 1322.99 457.285C1331.51 494.82 1332.27 534.02 1331.28 572.457C1329.69 633.702 1323.65 695.282 1305.62 750.749C1299.73 768.851 1291.64 785.095 1281.94 799.625L978.767 833.494L1248.67 838.182C1235.54 850.173 1221.27 860.387 1206.56 869C1158.18 897.317 1113.78 890.172 1060.54 881.607C1057.58 881.13 1054.58 880.648 1051.56 880.168C994.282 871.07 965.561 863.5 915.561 844C900.208 838.858 885.788 833.931 872.139 829.268C792.891 802.193 739.639 784 680.561 784C650.156 784 624.196 797.844 597.383 812.142C578.339 822.298 558.864 832.683 537.061 838.5C532.613 839.687 528.294 840.843 524.095 841.967C416.025 870.888 387.845 878.43 308.561 838.5C297.439 832.899 286.633 827.267 276.155 821.466L594.854 756.562L217.763 783.869C177.42 752.863 143.978 713.203 118.505 652.946C99.2218 607.328 84.9947 557.389 79.9752 506.978L377.676 456.752L78.0002 468.302C77.9912 457.637 78.442 446.995 79.3918 436.413C84.8374 375.82 106.317 320.358 133.746 272.368Z" fill="#DBEAFE"/>
<g filter="url(#filter0_f_2148_24472)">
<path d="M250.688 58.2527C265.669 58.2527 277.814 46.1078 277.814 31.1263C277.814 16.1449 265.669 4 250.688 4C235.706 4 223.561 16.1449 223.561 31.1263C223.561 46.1078 235.706 58.2527 250.688 58.2527Z" fill="#BFDBFE"/>
</g>
<g filter="url(#filter1_f_2148_24472)">
<path d="M949.4 85.218C964.381 85.218 976.526 73.0731 976.526 58.0917C976.526 43.1102 964.381 30.9653 949.4 30.9653C934.419 30.9653 922.274 43.1102 922.274 58.0917C922.274 73.0731 934.419 85.218 949.4 85.218Z" fill="#BFDBFE"/>
</g>
<g filter="url(#filter2_f_2148_24472)">
<path d="M1104.02 210.923C1129.13 210.923 1149.48 190.569 1149.48 165.461C1149.48 140.354 1129.13 120 1104.02 120C1078.92 120 1058.56 140.354 1058.56 165.461C1058.56 190.569 1078.92 210.923 1104.02 210.923Z" fill="#BFDBFE"/>
</g>
<g filter="url(#filter3_f_2148_24472)">
<path d="M178.023 238.544C203.13 238.544 223.484 218.19 223.484 193.082C223.484 167.975 203.13 147.621 178.023 147.621C152.915 147.621 132.561 167.975 132.561 193.082C132.561 218.19 152.915 238.544 178.023 238.544Z" fill="#BFDBFE"/>
</g>
<path d="M565.498 675.018C569.714 675.014 573.862 676.085 577.548 678.129H553.478C557.154 676.085 561.291 675.014 565.498 675.018V675.018Z" fill="#E6E6E6"/>
<path d="M632.003 463.646C632.003 463.646 657.387 455.745 653.49 468.745C649.593 481.745 628.212 475.178 628.212 475.178L632.003 463.646Z" fill="#FFB8B8"/>
<path d="M534.968 414.852C534.968 414.852 547.977 397.087 560.616 415.529C573.28 434.007 585.054 449.177 585.054 449.177L616.506 459.424L634.702 461.038L629.69 477.204L576.784 469.534C576.784 469.534 517.883 434.571 534.968 414.852Z" fill="#2F2E41"/>
<path d="M593.034 513.232C593.034 513.232 612.796 527.055 611.479 539.563C610.161 552.07 601.598 586.3 601.598 586.3L583.811 583.667C583.811 583.667 581.835 557.336 588.423 547.462L556.803 529.689L593.034 513.232Z" fill="#FFB8B8"/>
<path d="M549.228 545.816C549.228 545.816 550.545 570.172 547.251 580.046C543.958 589.92 540.664 626.784 540.664 626.784H522.219C522.219 626.784 513.655 594.528 524.195 580.046C524.195 580.046 527.489 560.956 518.267 551.741L549.228 545.816Z" fill="#FFB8B8"/>
<path d="M553.509 478.343C553.509 478.343 596.328 505.332 596.328 513.89L562.073 542.196L550.216 529.03L551.533 548.778L514.644 556.019C514.644 556.019 501.469 505.991 502.127 504.016C502.786 502.041 504.762 473.077 504.762 473.077L553.509 478.343Z" fill="#2F2E41"/>
<path d="M583.811 580.375L602.915 584.325L599.521 598.269C597.85 605.132 597.66 612.271 598.963 619.214V619.214C598.963 619.214 579.2 624.48 579.2 621.847C579.2 619.214 583.811 608.681 582.494 601.44C581.177 594.199 583.811 580.375 583.811 580.375Z" fill="#3B82F6"/>
<path d="M573.93 629.746C574.589 627.113 580.062 615.175 580.29 617.194C580.518 619.214 591.058 622.505 595.01 618.555C595.01 618.555 600.28 613.947 602.256 618.555C604.232 623.163 608.185 631.062 608.185 631.062C608.185 631.062 625.971 639.62 623.336 644.228C622.803 645.16 621.326 645.553 619.311 645.588C619.358 645.709 619.383 645.839 619.384 645.969V646.436C619.384 646.723 619.269 646.999 619.066 647.202C618.863 647.405 618.587 647.519 618.299 647.519H617.833C617.545 647.519 617.269 647.405 617.066 647.202C616.863 646.999 616.749 646.723 616.749 646.436V645.969C616.75 645.801 616.79 645.636 616.867 645.487C616.328 645.439 615.769 645.377 615.195 645.302C615.347 645.491 615.43 645.727 615.431 645.969V646.436C615.431 646.723 615.317 646.999 615.114 647.202C614.91 647.405 614.634 647.519 614.347 647.519H613.88C613.593 647.519 613.317 647.405 613.114 647.202C612.91 646.999 612.796 646.723 612.796 646.436V645.969C612.797 645.777 612.849 645.587 612.947 645.421C613.046 645.255 613.187 645.119 613.357 645.026C611.841 644.773 610.258 644.452 608.685 644.095C608.788 644.263 608.843 644.456 608.844 644.653V645.119C608.844 645.407 608.729 645.682 608.526 645.885C608.323 646.089 608.047 646.203 607.76 646.203H607.293C607.005 646.203 606.729 646.089 606.526 645.885C606.323 645.682 606.209 645.407 606.209 645.119V644.653C606.209 644.444 606.27 644.239 606.384 644.063C606.499 643.888 606.662 643.749 606.853 643.664C605.673 643.377 604.516 643.077 603.415 642.78C603.518 642.947 603.573 643.14 603.574 643.336V643.803C603.574 644.09 603.459 644.366 603.256 644.569C603.053 644.772 602.777 644.886 602.49 644.886H602.023C601.735 644.886 601.46 644.772 601.256 644.569C601.053 644.366 600.939 644.09 600.939 643.803V643.336C600.939 643.106 601.014 642.882 601.151 642.697C601.288 642.511 601.481 642.375 601.701 642.307C597.832 641.218 595.01 640.278 595.01 640.278C595.01 640.278 591.732 639.086 587.764 637.476V637.878C587.764 638.166 587.65 638.441 587.446 638.644C587.243 638.848 586.967 638.962 586.68 638.962H586.213C585.925 638.962 585.65 638.848 585.446 638.644C585.243 638.441 585.129 638.166 585.129 637.878V637.412C585.129 637.248 585.167 637.086 585.24 636.938C585.313 636.791 585.418 636.662 585.548 636.562C584.751 636.227 583.948 635.883 583.153 635.533V635.904C583.153 636.191 583.038 636.466 582.835 636.67C582.632 636.873 582.356 636.987 582.069 636.987H581.602C581.314 636.987 581.039 636.873 580.835 636.67C580.632 636.466 580.518 636.191 580.518 635.904V635.437C580.518 635.263 580.56 635.091 580.641 634.937C580.722 634.782 580.839 634.65 580.982 634.55C580.122 634.15 579.294 633.749 578.531 633.357C578.534 633.392 578.541 633.426 578.541 633.462V633.929C578.541 634.216 578.427 634.492 578.224 634.695C578.021 634.898 577.745 635.012 577.457 635.012H576.991C576.703 635.012 576.427 634.898 576.224 634.695C576.021 634.492 575.906 634.216 575.906 633.929V633.462C575.907 633.213 575.993 632.971 576.151 632.777C576.309 632.584 576.529 632.451 576.774 632.401C574.932 631.332 573.771 630.384 573.93 629.746Z" fill="#2F2E41"/>
<path d="M520.901 623.821L541.77 622.505C541.77 622.505 540.506 644.228 543.035 651.469C545.565 658.71 544.3 661.343 544.3 661.343L525.961 662.66L520.901 623.821Z" fill="#3B82F6"/>
<path d="M520.645 671.832C520.74 669.12 523.602 656.304 524.246 658.231C524.89 660.159 535.885 661.182 538.926 656.496C538.926 656.496 543.119 650.891 546.013 654.986C548.907 659.081 554.421 665.983 554.421 665.983C554.421 665.983 573.602 670.647 571.986 675.702C571.66 676.725 570.298 677.417 568.333 677.871C568.405 677.98 568.456 678.101 568.484 678.229L568.582 678.685C568.641 678.966 568.587 679.259 568.431 679.501C568.274 679.742 568.028 679.911 567.747 679.971L567.291 680.068C567.01 680.128 566.716 680.074 566.475 679.917C566.234 679.761 566.064 679.515 566.005 679.234L565.907 678.778C565.873 678.613 565.878 678.443 565.922 678.281C565.385 678.347 564.826 678.403 564.248 678.449C564.436 678.602 564.567 678.815 564.619 679.052L564.716 679.509C564.776 679.79 564.722 680.083 564.565 680.324C564.409 680.565 564.163 680.734 563.882 680.794L563.425 680.891C563.144 680.951 562.851 680.897 562.609 680.741C562.368 680.584 562.199 680.339 562.139 680.058L562.042 679.602C562.002 679.413 562.013 679.217 562.075 679.034C562.137 678.851 562.247 678.688 562.393 678.562C560.857 678.631 559.243 678.646 557.629 678.625C557.765 678.768 557.859 678.945 557.901 679.137L557.999 679.594C558.059 679.875 558.004 680.168 557.848 680.409C557.691 680.65 557.446 680.819 557.164 680.879L556.708 680.976C556.427 681.036 556.133 680.982 555.892 680.826C555.651 680.669 555.482 680.424 555.422 680.143L555.324 679.686C555.281 679.482 555.298 679.269 555.373 679.073C555.448 678.878 555.579 678.708 555.748 678.585C554.534 678.55 553.34 678.498 552.201 678.437C552.337 678.579 552.431 678.756 552.472 678.948L552.57 679.404C552.63 679.685 552.576 679.978 552.419 680.219C552.263 680.46 552.017 680.63 551.736 680.689L551.279 680.787C550.998 680.847 550.704 680.792 550.463 680.636C550.222 680.48 550.053 680.234 549.993 679.953L549.896 679.497C549.848 679.271 549.874 679.037 549.969 678.827C550.065 678.617 550.225 678.444 550.426 678.331C546.416 678.072 543.459 677.741 543.459 677.741C543.459 677.741 540.005 677.259 535.787 676.511L535.871 676.904C535.931 677.185 535.877 677.478 535.721 677.719C535.564 677.96 535.318 678.129 535.037 678.189L534.581 678.287C534.299 678.346 534.006 678.292 533.765 678.136C533.523 677.98 533.354 677.734 533.294 677.453L533.197 676.997C533.163 676.836 533.167 676.67 533.207 676.51C533.247 676.351 533.323 676.203 533.43 676.078C532.581 675.917 531.723 675.748 530.872 675.571L530.949 675.933C531.009 676.214 530.955 676.508 530.799 676.749C530.642 676.99 530.396 677.159 530.115 677.219L529.659 677.316C529.378 677.376 529.084 677.322 528.843 677.165C528.602 677.009 528.432 676.763 528.372 676.482L528.275 676.026C528.239 675.856 528.244 675.679 528.291 675.511C528.338 675.343 528.425 675.189 528.544 675.062C527.62 674.849 526.726 674.63 525.898 674.406C525.909 674.439 525.923 674.471 525.93 674.506L526.028 674.963C526.088 675.244 526.033 675.537 525.877 675.778C525.72 676.019 525.475 676.188 525.193 676.248L524.737 676.345C524.456 676.405 524.162 676.351 523.921 676.195C523.68 676.038 523.51 675.793 523.451 675.512L523.353 675.055C523.301 674.811 523.335 674.556 523.449 674.334C523.564 674.112 523.751 673.936 523.98 673.837C521.956 673.175 520.622 672.49 520.645 671.832Z" fill="#2F2E41"/>
<path d="M553.509 392.768C542.959 392.768 534.406 384.221 534.406 373.678C534.406 363.135 542.959 354.588 553.509 354.588C564.06 354.588 572.613 363.135 572.613 373.678C572.613 384.221 564.06 392.768 553.509 392.768Z" fill="#FFB8B8"/>
<path d="M536.382 371.703C536.382 371.703 525.842 384.868 520.572 384.21L543.628 401.983C543.628 401.983 546.263 390.793 549.557 389.476C552.851 388.16 536.382 371.703 536.382 371.703Z" fill="#FFB8B8"/>
<path d="M495.211 469.457C495.211 469.457 495.212 396.819 507.406 390.561C519.593 384.308 527.654 380.739 527.654 380.739C527.834 383.122 528.511 385.441 529.644 387.547C530.776 389.652 532.338 391.496 534.228 392.961C538.269 396.078 542.295 398.663 544.544 398.671L544.616 398.363L544.891 397.58L551.533 407.908C551.533 407.908 557.462 409.225 559.438 413.174C560.507 415.311 555.465 436.821 558.45 456.291C560.982 472.81 571.652 487.721 571.954 489.534C572.465 492.598 559.497 484.569 553.657 480.816C553.571 480.912 553.509 480.976 553.509 480.976C553.509 480.976 556.803 482.293 550.216 480.318C546.483 479.199 541.272 479.137 537.454 479.293C537.459 480.437 537.432 481.346 537.37 481.964C536.711 488.546 503.774 497.762 499.163 495.787C494.552 493.813 495.211 469.457 495.211 469.457Z" fill="#2F2E41"/>
<path d="M518.267 494.471C518.267 494.471 538.029 512.244 524.854 515.536C511.679 518.827 506.409 497.104 506.409 497.104L518.267 494.471Z" fill="#FFB8B8"/>
<path d="M541.323 540.55C541.323 540.55 532.1 531.992 526.83 536.6C521.56 541.208 518.267 544.5 518.267 544.5C518.267 544.5 533.418 535.284 541.323 540.55Z" fill="#3B82F6"/>
<path d="M538.927 642.943C538.927 642.943 533.729 638.12 530.759 640.717C527.788 643.314 525.932 645.169 525.932 645.169C525.932 645.169 534.472 639.975 538.927 642.943Z" fill="#2F2E41"/>
<path d="M597.162 598.079C597.162 598.079 593.594 591.953 589.996 593.574C586.397 595.195 584.081 596.43 584.081 596.43C584.081 596.43 593.764 593.944 597.162 598.079Z" fill="#2F2E41"/>
<path d="M500.188 399.593C506.718 386.476 526.587 393.63 523.358 407.921C523.31 408.134 523.26 408.349 523.207 408.566C519.804 422.094 514.244 434.985 506.739 446.746L513.985 479.001L521.89 495.458L505.421 499.408L485 450.037C485 450.037 490.633 418.787 500.188 399.593Z" fill="#2F2E41"/>
<path opacity="0.2" d="M509.703 447.733L522.219 495.129L511.679 472.748L509.703 447.733Z" fill="black"/>
<path d="M541.512 351.426C541.512 351.426 552.071 340.316 562.7 347.313C573.329 354.309 578.372 361.105 577.329 365.837C576.287 370.569 573.203 377.151 573.203 377.151C573.203 377.151 575.12 367.348 566.319 366.622C557.518 365.897 545.358 360.076 545.358 360.076L537.133 377.629C537.133 377.629 535.971 373.561 532.747 374.728C529.523 375.894 532.022 352.727 541.512 351.426Z" fill="#2F2E41"/>
<path d="M609.173 602.428C609.174 604.095 609.313 605.76 609.588 607.404V607.411C610.345 611.835 612.097 616.029 614.713 619.677C617.328 623.325 620.739 626.332 624.688 628.47C628.636 630.609 633.02 631.823 637.506 632.021C641.993 632.219 646.466 631.396 650.588 629.614H650.595C651.815 629.088 652.996 628.479 654.132 627.791C657.653 625.667 660.693 622.835 663.061 619.475C665.429 616.116 667.072 612.301 667.887 608.273C668.269 606.348 668.461 604.39 668.46 602.428C668.46 601.532 668.42 600.644 668.341 599.768V599.762C667.658 592.203 664.097 585.194 658.393 580.182C652.689 575.171 645.278 572.538 637.688 572.828C630.098 573.117 622.909 576.307 617.605 581.739C612.3 587.171 609.284 594.43 609.18 602.02V602.026C609.173 602.164 609.173 602.289 609.173 602.428Z" fill="#3B82F6"/>
<path d="M631.52 592.534H644.796L651.435 581.047L646.932 573.248L646.669 573.177C640.968 571.655 634.948 571.823 629.342 573.661L629.103 573.74L624.881 581.047L631.52 592.534ZM644.036 591.217H632.28L626.402 581.047L629.992 574.834C635.201 573.183 640.77 573.026 646.064 574.379L649.913 581.047L644.036 591.217Z" fill="white"/>
<path d="M632.178 616.232H645.455L652.093 604.742L645.455 593.253H632.178L625.54 604.742L632.178 616.232ZM644.694 614.916H632.939L627.061 604.742L632.939 594.569H644.694L650.572 604.742L644.694 614.916Z" fill="white"/>
<path d="M638.816 632.708C642.957 632.716 647.054 631.868 650.851 630.218L651.528 629.924L644.796 618.265H631.519L625.072 629.426L625.712 629.734C629.799 631.702 634.28 632.719 638.816 632.708V632.708ZM649.644 629.296C646.022 630.752 642.143 631.463 638.24 631.386C634.337 631.309 630.489 630.445 626.927 628.847L632.28 619.582H644.035L649.644 629.296Z" fill="white"/>
<path d="M609.781 604.383H623.057L629.696 592.896L623.058 581.402H617.012L616.817 581.607C611.575 587.119 608.611 594.407 608.521 602.011V602.202L609.781 604.383ZM622.297 603.066H610.541L609.841 601.854C609.968 594.74 612.725 587.924 617.58 582.719H622.297L628.175 592.896L622.297 603.066Z" fill="white"/>
<path d="M623.24 628.417L629.696 617.251L623.058 605.758H609.782L608.929 607.226L608.939 607.521C609.658 611.713 611.252 615.707 613.616 619.244C615.98 622.781 619.062 625.781 622.661 628.051L623.24 628.417ZM628.175 617.251L622.79 626.565C619.527 624.399 616.737 621.596 614.587 618.324C612.436 615.053 610.97 611.381 610.277 607.528L610.541 607.075H622.297L628.175 617.251Z" fill="white"/>
<path d="M653.898 628.701L654.473 628.354C658.07 626.181 661.177 623.286 663.597 619.852C666.017 616.418 667.698 612.519 668.533 608.402L668.582 608.158L667.193 605.758H653.916L647.278 617.252L653.898 628.701ZM667.191 608.385C666.391 612.165 664.844 615.747 662.641 618.921C660.439 622.096 657.624 624.8 654.363 626.874L648.8 617.251L654.678 607.075H666.433L667.191 608.385Z" fill="white"/>
<path d="M653.917 603.066H667.193L669 599.945V599.768C668.35 592.308 664.948 585.356 659.456 580.262L659.266 580.086H653.916L647.278 591.579L653.917 603.066ZM666.433 601.75H654.677L648.8 591.579L654.677 581.402H658.746C663.828 586.195 666.998 592.668 667.666 599.619L666.433 601.75Z" fill="white"/>
<path d="M1330.92 436.826L1333.93 454.294L1301.52 459.611L1309.06 435.307L1330.92 436.826Z" fill="#A0616A"/>
<path d="M1413.59 448.373C1420.12 451.323 1421.69 462.094 1417.09 472.431C1415.3 476.589 1412.56 480.256 1409.08 483.125L1402.5 500.824C1398.18 521.922 1388.35 544.135 1374.82 542.413C1355.66 539.976 1349.63 516.519 1349.63 516.519L1375.41 506.36L1386.92 484.007L1390.84 474.887C1390.65 470.363 1391.54 465.86 1393.44 461.754C1398.04 451.412 1407.06 445.423 1413.59 448.373V448.373V448.373Z" fill="#A0616A"/>
<path d="M1194.15 787.847L1176.28 774.536L1176.42 774.25L1276.01 574.332L1276.2 574.299L1356.39 560.58L1373.1 598.062L1416.78 659.937C1419.79 664.199 1421.36 669.217 1421.33 674.447L1420.62 784.663L1393.52 785.443L1393.49 785.093L1384.04 695.983C1383.35 689.488 1380 683.479 1374.86 679.499L1321.55 638.232L1194.15 787.847H1194.15V787.847Z" fill="#2F2E41"/>
<path d="M1179.02 775.939C1179.02 775.939 1169.97 777.458 1166.96 782.775C1163.94 788.091 1154.89 799.483 1154.89 799.483C1154.89 799.483 1148.11 812.395 1163.94 810.876C1179.77 809.357 1185.8 802.521 1185.8 802.521L1192.59 783.534L1179.02 775.939H1179.02Z" fill="#2F2E41"/>
<path d="M1407.43 775.939C1407.43 775.939 1416.48 777.458 1419.49 782.775C1422.51 788.091 1431.55 799.483 1431.55 799.483C1431.55 799.483 1438.34 812.395 1422.51 810.876C1406.68 809.357 1400.65 802.521 1400.65 802.521L1393.86 783.534L1407.43 775.939Z" fill="#2F2E41"/>
<path d="M1286.44 458.851L1339.96 448.219L1370.12 458.092L1361.82 571.256L1276.26 574.674L1286.44 458.851Z" fill="#3B82F6"/>
<path d="M1364.75 455.557L1376.41 473.3L1379.11 517.042L1344.49 519.69L1345.42 463.021L1364.75 455.557Z" fill="#3B82F6"/>
<path d="M1396.79 498.13L1382.78 492.522L1364.97 525.763L1381.24 533.936L1396.79 498.13Z" fill="#A0616A"/>
<path d="M1406.56 469.841C1405.58 469.841 1404.61 469.675 1403.68 469.34C1401.43 468.531 1399.61 466.802 1398.68 464.593L1388.05 439.439C1384.05 429.963 1379.45 420.626 1374.38 411.687L1372.16 407.77C1370.64 405.404 1334.48 349.336 1332.76 344.957C1331.46 341.655 1335.33 334.884 1335.5 334.597L1335.55 334.534C1335.63 334.438 1344.31 324.915 1354.74 333.759C1364.99 342.44 1382.25 399.975 1382.97 402.421L1383.44 403.605C1387.7 414.435 1393.08 424.863 1399.43 434.596L1413.72 456.468C1415.05 458.503 1415.46 461.022 1414.85 463.379C1414.25 465.735 1412.67 467.733 1410.53 468.861C1409.3 469.512 1407.93 469.841 1406.56 469.841V469.841V469.841Z" fill="#3F3D56"/>
<path d="M1311.24 477.84L1328.07 478.792L1360.41 444.425L1373.04 429.292C1374.15 424.904 1376.28 420.846 1379.27 417.459C1386.61 408.878 1396.96 405.742 1402.38 410.452C1407.8 415.162 1406.24 425.934 1398.89 434.51C1396 437.98 1392.33 440.702 1388.18 442.447L1385.06 446.587L1349.38 497.123C1342.94 506.241 1331.55 510.367 1320.82 507.47L1298.98 501.572L1311.24 477.84V477.84Z" fill="#A0616A"/>
<path d="M1301.8 511.706L1275.83 494.899C1267.57 489.558 1264.4 479.094 1268.29 470.019C1270.64 464.507 1275.27 460.375 1280.99 458.684C1286.7 456.992 1292.82 457.943 1297.76 461.296L1323.26 478.589L1301.8 511.706V511.706Z" fill="#3B82F6"/>
<path d="M1314.35 443.247C1329.04 443.247 1340.96 431.244 1340.96 416.437C1340.96 401.63 1329.04 389.627 1314.35 389.627C1299.65 389.627 1287.74 401.63 1287.74 416.437C1287.74 431.244 1299.65 443.247 1314.35 443.247Z" fill="#A0616A"/>
<path d="M1331.85 439.579L1329.56 435.722C1329.56 435.722 1339.62 428.887 1331.3 424.921C1322.99 420.954 1321.68 411.256 1321.68 411.256C1321.68 411.256 1297.39 404.206 1298.7 398.916C1300.01 393.625 1296.29 389.879 1302.42 387.674C1308.55 385.469 1335.89 387.669 1338.96 394.061C1342.02 400.453 1345.09 418.086 1343.56 420.511C1342.02 422.936 1331.85 439.579 1331.85 439.579V439.579Z" fill="#2F2E41"/>
<path d="M1324.96 409.272L1300.23 392.743C1300.23 392.743 1268.29 382.829 1280.33 401.783L1290.5 403.876C1290.5 403.876 1318.18 410.375 1324.96 409.272H1324.96Z" fill="#3B82F6"/>
<path d="M1317.52 405.526L1343.34 425.14C1343.34 425.14 1358.43 398.026 1334.8 384.584C1311.17 371.141 1296.19 392.193 1296.19 392.193L1302.42 398.915L1317.52 405.526V405.526Z" fill="#3B82F6"/>
<path d="M1171 386.435C1171 398.818 1181.03 408.869 1193.4 408.869C1199.46 408.869 1204.95 406.458 1208.98 402.54C1213.19 398.462 1215.79 392.753 1215.79 386.435C1215.79 374.051 1205.77 364 1193.4 364C1189.53 364 1185.89 364.988 1182.71 366.711C1182.17 367.01 1181.64 367.332 1181.13 367.676C1176.29 370.847 1172.77 375.843 1171.52 381.691C1171.36 382.357 1171.24 383.035 1171.17 383.724C1171.06 384.609 1171 385.516 1171 386.435H1171Z" fill="#3B82F6"/>
<path d="M1171.58 382.291C1171.9 382.645 1172.24 383.031 1172.6 383.468C1173.83 384.946 1174.31 385.748 1175 386.861C1175.59 387.83 1176.34 389.038 1177.8 391.078C1180.82 395.284 1182.34 397.397 1184.7 399.313C1187.02 401.197 1189.92 403.55 1194.27 403.852C1194.57 403.873 1194.87 403.873 1195.16 403.873C1200.42 403.873 1204.26 400.697 1205.73 399.272C1209.56 395.524 1210.36 390.974 1210.52 389.194C1210.66 387.757 1210.85 382.718 1207.55 378.19C1204.65 374.192 1200.63 372.766 1196.74 371.37C1194.19 370.464 1192.26 370.142 1190.55 369.85C1188.2 369.455 1186.19 369.111 1183.11 367.487C1182.68 367.258 1182.33 367.06 1182.03 366.873C1181.54 367.143 1181.06 367.435 1180.59 367.747C1180.67 367.789 1180.75 367.841 1180.83 367.893C1181.24 368.133 1181.74 368.424 1182.42 368.788C1185.71 370.527 1187.94 370.912 1190.3 371.308C1192.04 371.6 1193.83 371.902 1196.25 372.766C1200.09 374.14 1203.72 375.43 1206.36 379.064C1209.35 383.177 1209.17 387.746 1209.06 389.048C1208.91 390.672 1208.18 394.805 1204.7 398.21C1203.3 399.574 1199.5 402.728 1194.37 402.374C1190.48 402.103 1187.79 399.917 1185.62 398.168C1183.42 396.377 1181.94 394.316 1179.01 390.224C1177.56 388.215 1176.84 387.028 1176.26 386.081C1175.57 384.967 1175.03 384.082 1173.74 382.531C1173.05 381.688 1172.43 381.011 1171.89 380.449C1171.75 381.053 1171.65 381.667 1171.58 382.291Z" fill="#E6E6E6"/>
<path d="M816.555 567.401C816.555 567.401 811.552 530.969 803.214 540.905C794.876 550.841 803.214 565.745 803.214 565.745L809.885 574.025L816.555 569.057V567.401Z" fill="#9F616A"/>
<path d="M836.566 578.993C836.566 578.993 819.89 560.777 816.555 564.089C813.22 567.401 803.214 569.057 804.882 575.681C806.549 582.305 841.569 603.832 841.569 603.832L836.566 578.993Z" fill="#3B82F6"/>
<path opacity="0.1" d="M836.566 578.993C836.566 578.993 819.89 560.777 816.555 564.089C813.22 567.401 803.214 569.057 804.882 575.681C806.549 582.305 841.569 603.832 841.569 603.832L836.566 578.993Z" fill="black"/>
<path d="M931.618 577.337V590.585C931.618 590.585 933.286 620.392 923.28 618.736C913.275 617.08 918.277 592.241 918.277 592.241L919.945 577.337L931.618 577.337Z" fill="#9F616A"/>
<path d="M926.615 673.384C926.615 673.384 941.624 696.568 946.626 698.224C951.629 699.88 978.31 714.783 981.646 729.687L1004.99 759.495L993.319 774.399C993.319 774.399 939.956 718.095 924.948 713.127C909.94 708.16 894.931 683.32 894.931 683.32L926.615 673.384Z" fill="#9F616A"/>
<path d="M808.217 635.296C808.217 635.296 776.533 640.264 781.536 660.136C786.538 680.008 834.898 721.407 834.898 721.407L836.566 731.343L854.909 734.655L863.247 726.375L861.58 721.407C861.58 721.407 841.569 703.192 839.901 696.568C838.233 689.944 819.89 663.448 811.552 661.792L823.225 655.168L808.217 635.296Z" fill="#9F616A"/>
<path d="M999.989 759.495C999.989 759.495 993.319 749.559 1003.32 751.215C1013.33 752.871 1020 754.527 1020 761.151C1020 767.775 1011.66 814.143 1001.66 810.831C991.651 807.519 999.989 792.615 999.989 792.615C999.989 792.615 994.986 779.367 991.651 777.711C988.316 776.055 988.316 767.775 991.651 767.775C994.986 767.775 1001.66 762.807 999.989 759.495Z" fill="#2F2E41"/>
<path d="M858.245 723.064C858.245 723.064 858.245 714.784 864.915 723.064C871.585 731.343 874.92 737.967 868.25 742.935C861.58 747.903 838.234 759.495 838.234 759.495C838.234 759.495 813.22 764.463 816.555 752.871C816.555 752.871 833.231 744.591 833.231 737.967C833.231 731.343 833.231 719.752 838.234 723.064C843.236 726.375 858.245 728.031 858.245 723.064Z" fill="#2F2E41"/>
<path d="M889.928 598.864C889.928 598.864 913.275 602.176 911.607 635.296C911.607 635.296 941.623 665.104 933.286 675.04C924.948 684.976 906.604 703.191 899.934 698.223C893.264 693.256 873.253 655.168 873.253 655.168C873.253 655.168 826.56 671.728 818.222 663.448C809.885 655.168 801.547 635.296 801.547 635.296L843.236 613.768L889.928 598.864Z" fill="#2F2E41"/>
<path d="M824.893 504.473C835.945 504.473 844.904 495.576 844.904 484.601C844.904 473.626 835.945 464.729 824.893 464.729C813.841 464.729 804.882 473.626 804.882 484.601C804.882 495.576 813.841 504.473 824.893 504.473Z" fill="#9F616A"/>
<path d="M839.901 486.257C839.901 486.257 851.574 504.473 854.909 506.129C858.244 507.785 831.563 524.345 831.563 524.345C831.563 524.345 831.563 502.817 823.225 497.849L839.901 486.257Z" fill="#9F616A"/>
<path d="M841.569 504.473C841.569 504.473 868.25 496.193 873.253 509.441C878.255 522.689 889.928 547.529 888.261 564.089C886.593 580.649 883.258 577.337 888.261 582.305C893.264 587.273 896.599 583.961 894.931 590.585C893.264 597.209 891.596 597.209 893.264 600.521C894.931 603.832 873.253 615.424 854.909 617.08L836.566 618.736C836.566 618.736 836.566 588.929 833.231 582.305C829.896 575.681 823.225 562.433 823.225 557.465V544.32C823.225 535.571 825.524 526.973 829.896 519.377V519.377C829.896 519.377 839.901 504.473 841.569 504.473Z" fill="#3B82F6"/>
<path d="M861.58 511.097C861.58 511.097 923.28 516.065 929.95 532.625C936.621 549.185 939.956 582.305 933.286 582.305C926.615 582.305 918.277 585.617 916.61 582.305C914.942 578.993 908.272 545.873 906.604 545.873C904.937 545.873 854.909 540.905 854.909 540.905C854.909 540.905 833.231 514.409 861.58 511.097Z" fill="#3B82F6"/>
<path d="M824.089 479.675C824.089 479.675 818.779 470.511 812.141 478.47C805.503 486.43 794.705 471.803 796.362 468.681C798.02 465.56 803.874 468.822 813.906 465.565C823.938 462.308 843.263 455.674 846.5 477.316C849.736 498.958 842.028 496.689 842.028 496.689C842.028 496.689 838.495 477.512 835.302 483.02L832.108 488.529L829.338 489.206L824.089 479.675Z" fill="#2F2E41"/>
<path d="M2.35848 681.961C1.80233 681.961 1.35229 681.511 1.35229 680.955V397.404C1.35229 326.05 59.3998 268 130.751 268H349.232C349.789 268 350.239 268.45 350.239 269.006C350.239 269.562 349.789 297.181 349.232 297.181L130.751 270.012C60.5101 270.012 3.36467 327.16 3.36467 397.404V680.955C3.36467 681.511 2.91464 681.961 2.35848 681.961Z" fill="#3F3D56"/>
<path d="M235.693 453.423C235.693 449.302 237.33 445.269 240.406 442.267L283.77 399.945C284.901 395.631 287.064 391.597 290.028 388.271C293.61 384.143 298.005 381.148 302.405 379.84C306.882 378.508 310.838 379.074 313.545 381.431C319.068 386.24 317.503 397.138 310.057 405.72C307.188 409.121 303.503 411.828 299.4 413.55L260.035 454.205L281.706 487.107C285.903 492.01 286.832 498.796 284.098 504.768C281.457 510.539 275.935 514.133 269.685 514.149C263.001 514.166 257.082 510.157 254.606 503.937L236.808 459.219C236.058 457.334 235.693 455.368 235.693 453.423V453.423Z" fill="#FFB6B6"/>
<path d="M272.072 414.885C291 414.885 306.344 399.512 306.344 380.548C306.344 361.585 291 346.212 272.072 346.212C253.144 346.212 237.8 361.585 237.8 380.548C237.8 399.512 253.144 414.885 272.072 414.885Z" fill="#3F3D56"/>
<path d="M289.922 472.442L264.413 491.924L296.776 514.195L313.016 479.318L289.922 472.442Z" fill="#FFB6B6"/>
<path d="M303.836 489.204C318.751 489.204 330.842 477.09 330.842 462.147C330.842 447.204 318.751 435.091 303.836 435.091C288.922 435.091 276.831 447.204 276.831 462.147C276.831 477.09 288.922 489.204 303.836 489.204Z" fill="#FFB6B6"/>
<path d="M305.937 492.467C305.937 492.467 312.022 472.949 308.09 469.26C304.157 465.571 304.282 469.386 304.282 469.386L309.27 450.578C309.27 450.578 306.893 439.65 291.151 438.147C291.151 438.147 296.743 427.519 304.871 429.272C313 431.026 313.514 433.031 316.967 432.355C320.42 431.68 327.576 437.958 327.576 437.958C327.576 437.958 331.241 434.962 330.826 438.659C330.41 442.357 334.305 448.401 334.305 448.401C334.305 448.401 336.523 447.016 335.912 450.895C335.302 454.774 338.171 456.814 338.171 456.814C338.171 456.814 334.372 459.271 335.591 461.209C336.81 463.148 341.68 464.672 339.839 466.642C337.998 468.612 339.381 473.171 333.149 477.981C326.917 482.791 305.937 492.467 305.937 492.467L305.937 492.467V492.467Z" fill="#2F2E41"/>
<path d="M321.936 845.139L321.709 844.903L257.96 778.545C251.79 772.123 248.803 763.356 249.764 754.493L253.09 723.833L285.375 729.714L286.609 749.043L340.836 837.165L321.936 845.139V845.139Z" fill="#FFB6B6"/>
<path d="M329.682 893C328.654 893 327.637 892.737 326.711 892.222C324.466 890.972 323.227 888.425 323.627 885.884L325.843 871.824L314.401 846.985L317.418 837.914L334.696 836.953L340.454 831.184L346.903 832.308C350.762 832.979 353.974 835.381 355.716 838.894C357.457 842.408 357.426 846.422 355.63 849.908L335.149 889.665C334.381 891.158 333.073 892.247 331.469 892.733C330.879 892.911 330.279 893 329.682 893V893Z" fill="#2F2E41"/>
<path d="M297.3 659.535L284.924 737.747L224.948 766.361L215.428 690.057L297.3 659.535Z" fill="#2F2E41"/>
<path d="M262.912 822.247L262.685 822.012L198.936 755.654C192.766 749.231 189.779 740.465 190.74 731.602L194.066 700.941L226.351 706.823L227.585 726.152L281.812 814.274L262.912 822.247V822.247Z" fill="#FFB6B6"/>
<path d="M270.658 870.109C269.63 870.109 268.614 869.846 267.687 869.331C265.442 868.081 264.203 865.534 264.603 862.993L266.819 848.933L255.377 824.094L258.394 815.023L275.672 814.062L281.43 808.292L287.879 809.417C291.738 810.088 294.95 812.49 296.692 816.003C298.433 819.517 298.403 823.531 296.606 827.017L276.125 866.774C275.357 868.266 274.049 869.356 272.445 869.841C271.855 870.02 271.255 870.109 270.658 870.109V870.109Z" fill="#2F2E41"/>
<path d="M229.078 633.335L222.378 651.593L192.294 700.821C191.41 702.266 191.267 703.996 191.903 705.567C192.539 707.138 193.843 708.28 195.482 708.701L261.878 725.758L292.615 682.513C301.383 670.176 305.919 655.075 305.408 639.944L229.078 633.335V633.335V633.335Z" fill="#2F2E41"/>
<path d="M297.605 651.905H221.414L221.457 651.389L231.077 534.572C232.337 519.262 240.24 505.393 252.757 496.523L252.889 496.43L304.968 498.362L293.661 603.65L308.697 633.977C310.617 637.851 310.406 642.358 308.131 646.034C305.857 649.71 301.921 651.905 297.605 651.905V651.905Z" fill="#3B82F6"/>
<path d="M276.769 519.93C272.421 519.931 268.18 518.163 265.046 514.847L232.013 479.885C227.668 475.288 226.527 468.582 229.104 462.802L253.785 407.418C253.244 402.992 253.766 398.442 255.295 394.254C257.1 389.093 260.079 384.682 263.685 381.838C267.354 378.942 271.237 378.001 274.622 379.191C281.529 381.615 284.095 392.319 280.342 403.052C278.93 407.273 276.505 411.153 273.327 414.274L251.746 466.626L284.02 489.175C289.727 492.176 293.095 498.136 292.758 504.7C292.432 511.04 288.626 516.425 282.825 518.753C280.851 519.545 278.798 519.93 276.769 519.93V519.93Z" fill="#FFB6B6"/>
<path d="M38.1375 416.588C46.4796 426.595 49.7174 439.833 51.9429 452.68C52.7564 457.375 53.4682 462.089 54.0778 466.816C56.3533 484.46 57.1185 502.876 50.9684 519.566C49.4108 523.793 47.8321 529.486 51.5493 532.022C54.5021 534.037 58.8219 531.945 60.4296 528.749C62.0374 525.553 61.7176 521.766 61.3593 518.205C57.4463 522.416 58.6674 530.213 63.6796 533.021C68.6918 535.829 75.9613 532.788 77.4929 527.243C78.2908 533.16 84.0857 537.952 90.0351 537.614C95.9846 537.277 101.203 531.861 101.33 525.893C98.2454 529.176 99.7709 535.123 103.6 537.493C107.429 539.862 112.533 539.196 116.46 536.994C120.388 534.792 123.394 531.288 126.314 527.857C122.464 530.24 121.563 536.271 124.547 539.68C127.532 543.088 133.618 542.977 136.477 539.463C138.833 536.567 138.821 532.339 137.671 528.785C136.521 525.231 134.404 522.082 132.811 518.704C125.511 503.235 129.811 484.888 135.841 468.88C141.871 452.871 149.65 436.772 148.999 419.673" fill="white"/>
<path d="M37.6327 417.094C43.7501 424.502 47.0821 433.674 49.2632 442.927C51.6265 452.954 53.1005 463.276 54.1413 473.518C55.1946 483.883 55.5438 494.434 53.9749 504.767C53.2181 509.75 51.9954 514.637 50.2801 519.376C49.0973 522.644 47.6707 526.754 49.1319 530.16C50.8546 534.176 55.679 534.237 58.7715 531.824C62.8944 528.606 62.5389 522.874 62.0734 518.206C62.0171 517.64 61.3053 517.197 60.8546 517.7C57.637 521.291 57.5465 526.998 60.3166 530.891C63.2528 535.019 68.7011 535.765 73.0548 533.507C75.4974 532.241 77.3958 530.086 78.1815 527.434H76.8045C77.7582 533.739 83.9449 538.88 90.365 538.306C96.6501 537.744 101.811 532.177 102.044 525.893C102.067 525.29 101.236 524.927 100.825 525.387C98.7487 527.713 98.5243 530.979 99.6826 533.802C100.963 536.923 103.727 538.959 107.025 539.517C115.51 540.952 121.846 534.205 126.819 528.363C127.315 527.782 126.677 526.77 125.954 527.24C122.775 529.307 121.374 533.424 122.372 537.061C123.421 540.884 127.145 543.132 131.009 542.863C135.354 542.56 138.439 539.367 139.022 535.099C139.728 529.928 137.086 525.321 134.746 520.935C123.62 500.078 133.435 477.06 141.261 456.931C145.89 445.024 150.153 432.629 149.713 419.674C149.682 418.755 148.254 418.751 148.285 419.674C149.016 441.19 136.976 460.029 131.358 480.144C128.693 489.688 127.204 499.873 129.131 509.703C130.089 514.593 130.267 519.733 132.604 524.095C134.81 528.212 138.958 532.434 137.036 537.13C135.251 541.494 129.277 542.898 125.689 539.809C122.267 536.862 122.999 530.865 126.675 528.475L125.81 527.352C121.471 532.447 117.992 531.782 110.708 531.726C107.574 531.701 102.919 536.894 101.381 534.069C100.075 531.671 99.9389 528.523 101.835 526.399L100.616 525.893C100.409 531.477 95.6627 536.563 90.0352 536.899C84.2964 537.242 79.029 532.657 78.1815 527.053C78.07 526.316 76.9887 526.432 76.8045 527.053C75.2881 532.172 68.6014 535.069 63.9143 532.33C59.3432 529.659 58.3676 522.614 61.8643 518.711L60.6454 518.206C61.0744 522.509 61.6187 528.178 57.5329 530.971C55.983 532.03 53.8897 532.557 52.1738 531.572C50.5012 530.611 52.615 527.821 52.6363 526.003C52.6843 521.909 52.0893 518.896 53.2048 515.032C54.5377 510.414 55.3949 505.669 55.8979 500.892C56.9244 491.142 56.437 481.29 55.3624 471.567C54.2955 461.914 52.8987 452.203 50.6859 442.741C48.446 433.163 44.9672 423.741 38.6425 416.082C38.0561 415.372 37.0508 416.389 37.6327 417.094V417.094V417.094Z" fill="#3F3D56"/>
<path d="M93.5723 428.793C64.4973 428.793 33.5964 423.945 33.5964 414.962C33.5964 405.98 64.4973 401.132 93.5723 401.132C122.647 401.132 153.548 405.98 153.548 414.962C153.548 423.945 122.647 428.793 93.5723 428.793V428.793ZM93.5723 403.04C59.3497 403.04 35.5004 409.323 35.5004 414.962C35.5004 420.601 59.3497 426.885 93.5723 426.885C127.795 426.885 151.644 420.601 151.644 414.962C151.644 409.323 127.795 403.04 93.5723 403.04V403.04Z" fill="#3F3D56"/>
<path d="M27.0068 442.191C26.7084 442.191 26.409 442.175 26.1106 442.14L7.61637 440.003C3.7089 439.552 0.691144 436.24 0.596316 432.299L0.00224961 407.631C-0.0516716 405.365 0.865931 403.179 2.5189 401.632C4.17281 400.084 6.41521 399.319 8.66598 399.527L36.4125 402.113C39.5427 402.406 42.2081 404.525 43.2029 407.513L47.6607 420.912C48.6908 424.01 47.6923 427.486 45.1766 429.56L32.0606 440.38C30.6391 441.552 28.8364 442.191 27.0068 442.191V442.191Z" fill="#3F3D56"/>
<defs>
<filter id="filter0_f_2148_24472" x="219.561" y="0" width="62.2527" height="62.2527" filterUnits="userSpaceOnUse" color-interpolation-filters="sRGB">
<feFlood flood-opacity="0" result="BackgroundImageFix"/>
<feBlend mode="normal" in="SourceGraphic" in2="BackgroundImageFix" result="shape"/>
<feGaussianBlur stdDeviation="2" result="effect1_foregroundBlur_2148_24472"/>
</filter>
<filter id="filter1_f_2148_24472" x="918.274" y="26.9653" width="62.2527" height="62.2527" filterUnits="userSpaceOnUse" color-interpolation-filters="sRGB">
<feFlood flood-opacity="0" result="BackgroundImageFix"/>
<feBlend mode="normal" in="SourceGraphic" in2="BackgroundImageFix" result="shape"/>
<feGaussianBlur stdDeviation="2" result="effect1_foregroundBlur_2148_24472"/>
</filter>
<filter id="filter2_f_2148_24472" x="1054.56" y="116" width="98.9227" height="98.9229" filterUnits="userSpaceOnUse" color-interpolation-filters="sRGB">
<feFlood flood-opacity="0" result="BackgroundImageFix"/>
<feBlend mode="normal" in="SourceGraphic" in2="BackgroundImageFix" result="shape"/>
<feGaussianBlur stdDeviation="2" result="effect1_foregroundBlur_2148_24472"/>
</filter>
<filter id="filter3_f_2148_24472" x="128.561" y="143.621" width="98.9229" height="98.9229" filterUnits="userSpaceOnUse" color-interpolation-filters="sRGB">
<feFlood flood-opacity="0" result="BackgroundImageFix"/>
<feBlend mode="normal" in="SourceGraphic" in2="BackgroundImageFix" result="shape"/>
<feGaussianBlur stdDeviation="2" result="effect1_foregroundBlur_2148_24472"/>
</filter>
</defs>
</svg>
