<svg width="370" height="313" viewBox="0 0 370 313" fill="none" xmlns="http://www.w3.org/2000/svg">
<g filter="url(#filter0_dd_1336_22450)">
<path d="M362.3 111.511C356.985 143.468 355.051 175.897 356.533 208.259C356.533 238.508 359.192 260.103 341.4 276.337C321.979 294.077 291.72 287.299 265.449 288.504C230.471 290.108 197.625 307.821 162.628 308.479C139.74 308.929 117.386 302.001 96.1072 293.594C69.0871 282.906 42.3146 269.135 23.5191 246.977C14.5841 236.471 9.49423 226.155 6.75703 215.617C3.24428 201.989 3.64834 187.938 4.70412 172.356C4.9257 169.097 5.17987 165.682 5.42753 162.248C7.83887 129.877 -3.65739 97.4866 13.1047 66.9211C29.5671 36.9422 66.402 24.5596 100.474 21.6855C134.545 18.8115 169.503 22.637 202.474 13.5847C214.856 10.1502 226.861 4.92993 239.622 3.19637C251.47 1.59315 263.513 3.04647 275.329 4.92993C294.02 7.91479 312.868 12.001 329.421 21.1902C345.975 30.3794 360.13 45.3037 364.614 63.6691C368.374 79.2907 364.94 95.6552 362.3 111.511Z" fill="white"/>
<path d="M356.194 188.555C356.047 189.201 355.747 189.802 355.321 190.309C355.077 190.597 354.765 190.82 354.415 190.96C353.183 191.436 351.854 190.654 350.752 189.904C348.322 188.327 345.985 186.61 343.753 184.762C342.449 183.628 340.768 182.156 340.716 180.442C340.673 179.8 340.85 179.164 341.218 178.636C341.644 178.023 342.215 177.524 342.88 177.183C343.545 176.842 344.283 176.67 345.03 176.681C346.518 176.698 347.981 177.067 349.299 177.757C351.432 178.681 353.289 180.143 354.689 181.999C355.39 182.923 355.887 183.985 356.146 185.115C356.406 186.246 356.422 187.418 356.194 188.555Z" fill="#3B82F6"/>
<path d="M355.321 190.309C355.076 190.597 354.765 190.821 354.415 190.961C353.183 191.436 351.853 190.654 350.752 189.905C348.322 188.327 345.985 186.61 343.753 184.763C342.449 183.629 340.768 182.156 340.716 180.442C341.611 179.577 342.807 179.093 344.052 179.093C345.546 179.113 347.014 179.481 348.341 180.168C350.47 181.102 352.327 182.562 353.737 184.411C354.989 186.107 355.555 188.213 355.321 190.309V190.309Z" fill="url(#paint0_linear_1336_22450)"/>
<path d="M139.681 134.913C138.13 137.852 133.483 137.52 131.456 140.088C130.577 141.189 130.348 142.695 130.153 144.102C129.254 150.672 128.322 157.221 127.396 163.771C129.931 165.329 132.564 167.03 133.868 169.721C135.171 172.413 134.343 176.238 131.535 177.223C128.498 178.2 125.715 175.437 123.004 173.755C119.843 171.748 114.851 171.527 113.065 174.837C114.851 175.893 116.682 177.02 117.862 178.748C119.041 180.475 119.393 182.958 118.109 184.613C116.232 186.946 112.563 186.19 109.78 185.037C106.997 183.883 103.661 182.651 101.249 184.463C103.123 185.909 104.686 187.718 105.844 189.781C106.541 190.987 107.043 192.538 106.268 193.691C105.492 194.845 103.785 194.845 102.357 194.591C95.7619 193.366 89.7857 188.947 83.1642 188.647C82.7628 188.621 82.36 188.621 81.9586 188.647C75.109 188.849 69.4652 193.691 63.5672 197.204C63.3348 197.352 63.0932 197.485 62.8438 197.602C58.3616 200.23 53.5048 202.16 48.4408 203.324C45.8014 203.93 43.1685 203.5 40.5877 204.275C37.6484 205.155 35.2436 207.039 32.8583 208.968C23.3824 216.71 17.7211 216.569 10.5001 226.508C6.98738 212.88 3.41382 206.947 4.4696 191.365C6.19664 190.615 7.57828 190.009 7.72818 189.911C14.5495 185.845 21.3903 181.795 28.2507 177.763C28.7544 177.419 29.3147 177.165 29.9061 177.014C31.8156 176.688 33.2689 178.493 34.2726 180.201C37.6354 175.306 42.4516 171.442 47.3981 168.183C52.866 164.521 58.6141 161.308 64.3427 158.069C69.6086 155.084 74.9005 152.125 80.1729 149.134C86.0383 145.875 91.9885 142.512 98.3362 140.205C103.758 138.25 109.454 137.044 114.772 134.809C120.195 132.573 124.007 130.442 129.762 129.491C131.997 129.139 135.627 128.663 137.543 129.817C139.459 130.97 140.711 132.899 139.681 134.913Z" fill="#FECB9C"/>
<path d="M88.2736 185.394C87.8696 186.945 85.8362 187.526 84.1548 187.728C83.942 187.795 83.7455 187.906 83.5773 188.053C83.4092 188.2 83.273 188.38 83.1772 188.581C82.7757 188.555 82.373 188.555 81.9715 188.581C75.122 188.783 69.4782 193.626 63.5801 197.138C63.3478 197.286 63.1061 197.419 62.8567 197.536C62.3288 195.835 62.3549 190.967 65.9393 179.777C66.5911 177.821 67.321 175.215 67.8945 173.325C68.229 172.073 68.7194 170.869 69.3543 169.74C71.5954 166.269 75.0474 163.756 79.0388 162.689C79.3993 162.544 79.7857 162.476 80.1738 162.489C80.5618 162.501 80.9432 162.594 81.2938 162.76C82.0498 163.21 82.1475 164.24 81.8999 165.048C81.6522 165.856 81.1178 166.573 80.8441 167.381C79.7166 170.411 82.1475 173.448 84.031 176.134C85.5876 178.297 86.8765 180.64 87.8696 183.113C88.238 183.813 88.3792 184.611 88.2736 185.394V185.394Z" fill="url(#paint1_linear_1336_22450)"/>
<path d="M146.104 148.856L125.574 124.328C124.398 122.923 122.306 122.737 120.901 123.913L69.4713 166.961C68.0665 168.137 67.8808 170.229 69.0568 171.634L89.5871 196.162C90.763 197.567 92.8552 197.752 94.2601 196.577L145.69 153.529C147.095 152.353 147.28 150.261 146.104 148.856Z" fill="#3B82F6"/>
<path d="M146.104 148.856L125.574 124.328C124.398 122.923 122.306 122.737 120.901 123.913L69.4713 166.961C68.0665 168.137 67.8808 170.229 69.0568 171.634L89.5871 196.162C90.763 197.567 92.8552 197.752 94.2601 196.577L145.69 153.529C147.095 152.353 147.28 150.261 146.104 148.856Z" fill="url(#paint2_linear_1336_22450)"/>
<path d="M142.046 150.586L122.884 127.692C121.833 126.437 119.962 126.271 118.707 127.322L74.5333 164.296C73.2775 165.347 73.1115 167.217 74.1627 168.473L93.3252 191.367C94.3764 192.622 96.2466 192.788 97.5024 191.737L141.676 154.763C142.932 153.712 143.097 151.842 142.046 150.586Z" fill="#FFFBFF"/>
<path d="M39.1603 161.979C41.8114 159.495 44.682 157.257 47.7369 155.292C51.043 153.368 54.4946 151.705 58.0601 150.319C64.7858 147.524 71.518 144.715 78.4848 142.616C80.6029 141.964 82.734 141.404 84.8651 140.837L103.289 135.897C103.869 137.741 102.872 139.696 101.758 141.274C98.2802 146.195 93.4092 149.963 87.7718 152.092C86.1751 152.692 84.5132 153.174 83.1576 154.236C82.1721 155.121 81.2968 156.121 80.5508 157.215C76.4775 162.428 70.5143 166.397 68.1682 172.582C67.3796 174.635 67.0146 176.877 65.8481 178.734C64.5446 180.774 62.4591 182.13 60.4193 183.414C52.5987 188.36 44.5435 193.359 35.5498 195.653C34.4875 196.016 33.344 196.07 32.2521 195.809C31.1869 195.344 30.2711 194.593 29.6062 193.639C27.2079 190.817 24.6205 188.067 22.3852 185.115C20.2345 182.267 21.2642 180.481 23.4475 178.05C28.393 172.415 33.6382 167.05 39.1603 161.979V161.979Z" fill="#FECB9C"/>
<path d="M121.451 160.279L108.164 143.817L99.9736 150.428L113.261 166.889L121.451 160.279Z" fill="#FFFBFF"/>
<path d="M356.448 237.232C349.071 226.068 338.584 217.387 328.268 208.876C325.909 206.921 323.504 205.064 320.545 204.184C317.984 203.408 315.331 203.838 312.685 203.232C307.529 202.042 302.588 200.063 298.035 197.367L297.585 197.093C291.72 193.58 286.043 188.738 279.194 188.536C277.879 188.496 276.566 188.623 275.283 188.914C269.718 190.041 264.524 193.476 258.828 194.506C257.446 194.76 255.764 194.76 254.917 193.606C254.07 192.453 254.663 190.921 255.341 189.696C256.502 187.627 258.075 185.817 259.962 184.378C257.55 182.566 254.187 183.824 251.431 184.952C248.674 186.079 244.953 186.861 243.102 184.528C241.798 182.892 242.118 180.409 243.323 178.663C244.529 176.916 246.36 175.828 248.12 174.752C246.36 171.442 241.342 171.663 238.181 173.67C235.496 175.352 232.713 178.115 229.676 177.138C226.867 176.179 226.059 172.295 227.317 169.636C228.575 166.977 231.227 165.244 233.789 163.686C232.863 157.136 231.957 150.587 231.032 144.017C230.856 142.61 230.602 141.104 229.728 140.003C227.702 137.396 223.055 137.767 221.53 134.828C220.5 132.821 221.706 130.918 223.635 129.738C225.564 128.559 229.181 129.087 231.39 129.412C237.184 130.364 240.971 132.495 246.419 134.73C251.711 136.966 257.433 138.171 262.829 140.127C269.177 142.434 275.12 145.77 281.018 149.055C286.291 152.046 291.557 155.005 296.849 157.99C302.597 161.249 308.319 164.442 313.793 168.105C318.74 171.363 323.569 175.228 326.945 180.122C327.922 178.415 329.376 176.61 331.305 176.935C331.891 177.085 332.445 177.339 332.941 177.685C339.792 181.726 346.642 185.775 353.489 189.833C353.965 190.107 355.666 191.28 355.92 191.756C355.386 206.712 354.916 222.425 356.448 237.232Z" fill="#FECB9C"/>
<path d="M341.954 182.384L338.884 180.767C338.741 180.67 338.568 180.626 338.396 180.643C338.241 180.699 338.113 180.811 338.037 180.956C337.506 181.904 337.157 182.943 337.007 184.019C336.009 188.515 333.958 192.709 331.025 196.259C329.382 198.246 327.395 200.169 326.821 202.665C326.248 205.161 327.193 207.716 328.737 209.684C330.282 211.652 332.432 213.118 334.524 214.422C336.616 215.725 338.832 217.029 340.624 218.801C345.506 215.608 348.191 210.003 350.231 204.535C350.335 204.249 350.544 203.884 350.882 203.949C351.023 203.992 351.145 204.082 351.228 204.203C352.831 206.08 353.763 208.55 355.79 209.997L356.546 192.589C356.598 192.225 356.548 191.853 356.402 191.514C356.175 191.19 355.858 190.939 355.49 190.791C351.325 188.613 347.354 186.082 343.622 183.224" fill="url(#paint3_linear_1336_22450)"/>
<path d="M354.89 192.622C354.89 192.068 355.19 193.124 354.89 192.622V192.622Z" fill="#FECB9C"/>
<path d="M308.475 192.798C308.536 193.689 308.389 194.581 308.045 195.405C307.191 197.034 305.034 197.412 303.203 197.49C301.48 197.554 299.754 197.519 298.035 197.386V197.386L297.585 197.112C291.72 193.6 286.043 188.757 279.194 188.555C277.88 188.516 276.566 188.643 275.283 188.933C273.971 188.022 272.768 186.961 271.699 185.773C270.151 183.988 269.016 181.885 268.373 179.611C267.731 177.338 267.598 174.951 267.984 172.621C269.34 164.846 280.367 155.083 286.675 164.292C288.607 167.237 290.882 169.941 293.453 172.347C297.442 176.062 303.464 176.987 306.527 181.908C308.423 185.095 308.475 189.005 308.475 192.798Z" fill="url(#paint4_linear_1336_22450)"/>
<path d="M271.567 196.157L292.097 171.629C293.273 170.224 293.088 168.132 291.683 166.956L240.253 123.908C238.848 122.732 236.756 122.918 235.58 124.323L215.05 148.851C213.874 150.255 214.059 152.348 215.464 153.524L266.894 196.571C268.299 197.747 270.391 197.562 271.567 196.157Z" fill="#3B82F6"/>
<path d="M271.567 196.157L292.097 171.629C293.273 170.224 293.088 168.132 291.683 166.956L240.253 123.908C238.848 122.732 236.756 122.918 235.58 124.323L215.05 148.851C213.874 150.255 214.059 152.348 215.464 153.524L266.894 196.571C268.299 197.747 270.391 197.562 271.567 196.157Z" fill="url(#paint5_linear_1336_22450)"/>
<path d="M267.824 191.35L286.986 168.456C288.037 167.201 287.871 165.33 286.616 164.279L242.442 127.305C241.186 126.254 239.316 126.42 238.265 127.676L219.103 150.57C218.051 151.826 218.217 153.696 219.473 154.747L263.646 191.721C264.902 192.772 266.772 192.606 267.824 191.35Z" fill="#FFFBFF"/>
<path d="M322.005 161.979C319.355 159.497 316.486 157.259 313.435 155.292C310.126 153.368 306.673 151.705 303.105 150.319C296.386 147.524 289.647 144.715 282.68 142.616C280.569 141.964 278.431 141.404 276.3 140.837L257.876 135.897C257.296 137.741 258.293 139.696 259.408 141.274C262.885 146.195 267.756 149.963 273.393 152.092C274.99 152.692 276.652 153.174 278.014 154.236C278.998 155.122 279.873 156.122 280.621 157.215C284.694 162.428 290.657 166.397 293.036 172.582C293.825 174.635 294.19 176.877 295.363 178.734C296.666 180.774 298.745 182.13 300.785 183.414C308.638 188.36 316.661 193.359 325.654 195.653C326.717 196.016 327.86 196.07 328.952 195.809C330.018 195.342 330.936 194.591 331.605 193.639C333.996 190.817 336.59 188.067 338.819 185.115C340.97 182.267 339.94 180.481 337.757 178.05C332.799 172.414 327.54 167.049 322.005 161.979V161.979Z" fill="#FECB9C"/>
<path d="M247.898 166.875L261.185 150.414L252.995 143.803L239.708 160.264L247.898 166.875Z" fill="#FFFBFF"/>
<path d="M147.56 138.093L146.185 136.17C148.882 134.379 151.746 132.852 154.736 131.608L155.668 133.779C152.835 134.958 150.12 136.402 147.56 138.093V138.093ZM209.825 134.117C206.974 132.901 204.051 131.861 201.073 131.002L201.724 128.734C204.796 129.619 207.811 130.692 210.751 131.947L209.825 134.117ZM164.42 130.702L163.768 128.421C166.858 127.574 170.003 126.938 173.179 126.518L173.485 128.865C170.425 129.267 167.396 129.881 164.42 130.702V130.702ZM192.007 129.047C188.947 128.596 185.859 128.354 182.766 128.324V125.958C185.968 125.992 189.165 126.245 192.333 126.714L192.007 129.047Z" fill="#3B82F6"/>
<path d="M342.443 181.765C342.443 181.765 329.174 203.995 328.268 208.876C327.362 213.757 337.027 221.33 339.145 221.33C341.263 221.33 353.437 189.911 353.437 189.911C353.437 189.911 350.68 184.124 342.443 181.765Z" fill="#3B82F6"/>
<path d="M342.775 181.875C342.775 181.875 329.702 204.321 328.802 209.248C327.903 214.175 337.555 221.695 339.673 221.695C341.791 221.695 353.541 190.081 353.541 190.081C353.541 190.081 351.013 184.228 342.775 181.875Z" fill="url(#paint6_linear_1336_22450)"/>
<path opacity="0.24" d="M108.418 172.158C115.311 172.158 120.898 166.571 120.898 159.678C120.898 152.785 115.311 147.198 108.418 147.198C101.525 147.198 95.9377 152.785 95.9377 159.678C95.9377 166.571 101.525 172.158 108.418 172.158Z" fill="#3B82F6"/>
<path opacity="0.24" d="M253.894 171.402C260.787 171.402 266.374 165.814 266.374 158.922C266.374 152.029 260.787 146.441 253.894 146.441C247.001 146.441 241.414 152.029 241.414 158.922C241.414 165.814 247.001 171.402 253.894 171.402Z" fill="#3B82F6"/>
<path d="M162.448 77.5078V50.8678H173.248C175.216 50.8678 176.896 51.2158 178.288 51.9118C179.704 52.6078 180.784 53.5678 181.528 54.7918C182.296 56.0158 182.68 57.4318 182.68 59.0398C182.68 60.7918 182.236 62.3278 181.348 63.6478C180.46 64.9438 179.2 65.8918 177.568 66.4918L183.364 77.5078H177.208L171.916 67.2478H167.992V77.5078H162.448ZM173.176 55.6558H167.992V62.7118H173.176C174.4 62.7118 175.36 62.3758 176.056 61.7038C176.752 61.0318 177.1 60.2038 177.1 59.2198C177.1 58.2118 176.752 57.3718 176.056 56.6998C175.36 56.0038 174.4 55.6558 173.176 55.6558ZM188.077 84.5278V58.4278H193.549V60.8758H193.801C193.921 60.7078 194.185 60.3958 194.593 59.9398C195.025 59.4838 195.637 59.0638 196.429 58.6798C197.221 58.2718 198.229 58.0678 199.453 58.0678C200.869 58.0678 202.093 58.3558 203.125 58.9318C204.181 59.4838 205.057 60.2398 205.753 61.1998C206.449 62.1358 206.965 63.1918 207.301 64.3678C207.661 65.5438 207.841 66.7438 207.841 67.9678C207.841 69.1918 207.661 70.3918 207.301 71.5678C206.965 72.7438 206.449 73.8118 205.753 74.7718C205.057 75.7078 204.181 76.4638 203.125 77.0398C202.093 77.5918 200.869 77.8678 199.453 77.8678C198.229 77.8678 197.221 77.6758 196.429 77.2918C195.637 76.8838 195.025 76.4518 194.593 75.9958C194.185 75.5398 193.921 75.2278 193.801 75.0598H193.549V84.5278H188.077ZM193.441 67.9678C193.441 68.8558 193.597 69.7198 193.909 70.5598C194.245 71.3998 194.737 72.0958 195.385 72.6478C196.057 73.1758 196.885 73.4398 197.869 73.4398C198.853 73.4398 199.669 73.1758 200.317 72.6478C200.989 72.0958 201.481 71.3998 201.793 70.5598C202.129 69.7198 202.297 68.8558 202.297 67.9678C202.297 67.0798 202.129 66.2158 201.793 65.3758C201.481 64.5358 200.989 63.8518 200.317 63.3238C199.669 62.7718 198.853 62.4958 197.869 62.4958C196.885 62.4958 196.057 62.7718 195.385 63.3238C194.737 63.8518 194.245 64.5358 193.909 65.3758C193.597 66.2158 193.441 67.0798 193.441 67.9678Z" fill="#3B82F6"/>
</g>
<defs>
<filter id="filter0_dd_1336_22450" x="0.724365" y="0.507812" width="368.551" height="311.992" filterUnits="userSpaceOnUse" color-interpolation-filters="sRGB">
<feFlood flood-opacity="0" result="BackgroundImageFix"/>
<feColorMatrix in="SourceAlpha" type="matrix" values="0 0 0 0 0 0 0 0 0 0 0 0 0 0 0 0 0 0 127 0" result="hardAlpha"/>
<feOffset dy="1"/>
<feGaussianBlur stdDeviation="1"/>
<feColorMatrix type="matrix" values="0 0 0 0 0 0 0 0 0 0 0 0 0 0 0 0 0 0 0.06 0"/>
<feBlend mode="normal" in2="BackgroundImageFix" result="effect1_dropShadow_1336_22450"/>
<feColorMatrix in="SourceAlpha" type="matrix" values="0 0 0 0 0 0 0 0 0 0 0 0 0 0 0 0 0 0 127 0" result="hardAlpha"/>
<feOffset dy="1"/>
<feGaussianBlur stdDeviation="1.5"/>
<feColorMatrix type="matrix" values="0 0 0 0 0 0 0 0 0 0 0 0 0 0 0 0 0 0 0.1 0"/>
<feBlend mode="normal" in2="effect1_dropShadow_1336_22450" result="effect2_dropShadow_1336_22450"/>
<feBlend mode="normal" in="SourceGraphic" in2="effect2_dropShadow_1336_22450" result="shape"/>
</filter>
<linearGradient id="paint0_linear_1336_22450" x1="350.732" y1="180.481" x2="345.434" y2="190.022" gradientUnits="userSpaceOnUse">
<stop stop-color="#010101" stop-opacity="0"/>
<stop offset="0.95" stop-color="#010101"/>
</linearGradient>
<linearGradient id="paint1_linear_1336_22450" x1="46.44" y1="185.655" x2="268.473" y2="135.212" gradientUnits="userSpaceOnUse">
<stop stop-color="#010101" stop-opacity="0"/>
<stop offset="0.95" stop-color="#010101"/>
</linearGradient>
<linearGradient id="paint2_linear_1336_22450" x1="138.062" y1="166.583" x2="-36.6697" y2="130.315" gradientUnits="userSpaceOnUse">
<stop stop-color="#010101" stop-opacity="0"/>
<stop offset="0.95" stop-color="#010101"/>
</linearGradient>
<linearGradient id="paint3_linear_1336_22450" x1="303.17" y1="163.23" x2="409.498" y2="264.252" gradientUnits="userSpaceOnUse">
<stop stop-color="#010101" stop-opacity="0"/>
<stop offset="0.95" stop-color="#010101"/>
</linearGradient>
<linearGradient id="paint4_linear_1336_22450" x1="255.224" y1="203.91" x2="487.762" y2="44.8781" gradientUnits="userSpaceOnUse">
<stop stop-color="#010101" stop-opacity="0"/>
<stop offset="0.95" stop-color="#010101"/>
</linearGradient>
<linearGradient id="paint5_linear_1336_22450" x1="223.629" y1="176.241" x2="413.904" y2="74.5082" gradientUnits="userSpaceOnUse">
<stop stop-color="#010101" stop-opacity="0"/>
<stop offset="0.95" stop-color="#010101"/>
</linearGradient>
<linearGradient id="paint6_linear_1336_22450" x1="340.083" y1="189.963" x2="346.913" y2="255.428" gradientUnits="userSpaceOnUse">
<stop stop-color="#010101" stop-opacity="0"/>
<stop offset="0.95" stop-color="#010101"/>
</linearGradient>
</defs>
</svg>
