<svg width="560" height="481" viewBox="0 0 560 481" fill="none" xmlns="http://www.w3.org/2000/svg">
<path d="M426.282 478.5H267.672C243.882 478.5 224.528 460.201 224.528 437.709V41.2903C224.528 18.7986 243.882 0.5 267.672 0.5H426.282C450.071 0.5 469.426 18.7986 469.426 41.2903C472.378 200.48 477.413 378.747 469.426 437.709C469.426 460.201 450.071 478.5 426.282 478.5L426.282 478.5V478.5Z" fill="#3F3D56"/>
<path d="M471.638 146.316C470.631 146.316 469.813 147.09 469.813 148.042V203.262C469.813 204.213 470.631 204.987 471.638 204.987C472.645 204.987 473.463 204.213 473.463 203.262V148.042C473.463 147.09 472.645 146.316 471.638 146.316Z" fill="#3F3D56"/>
<path d="M465.32 41.2906V437.702C465.32 457.28 449.203 473.294 428.825 474.536H428.816C428.514 474.553 428.213 474.571 427.903 474.579C427.365 474.605 426.826 474.614 426.279 474.614C426.279 474.614 424.271 474.476 420.602 474.217C416.897 473.958 411.504 473.57 404.778 473.061C402.761 472.914 400.634 472.75 398.389 472.577C393.918 472.232 389.008 471.853 383.742 471.421C381.643 471.257 379.471 471.076 377.254 470.895C365.919 469.972 353.225 468.893 339.837 467.668C337.574 467.47 335.292 467.262 332.992 467.047C332.39 466.986 228.635 442.327 228.635 437.702V41.2906C228.635 20.9023 246.111 4.37939 267.676 4.37939H290.984C294.707 4.37939 297.7 7.12314 298.02 10.6348C298.047 10.8678 298.075 11.1007 298.12 11.3337C298.796 14.8626 302.218 17.3216 306.014 17.3216H387.94C391.737 17.3216 395.159 14.8626 395.834 11.3337C395.88 11.1007 395.907 10.8678 395.935 10.6348C396.254 7.12315 399.247 4.37939 402.971 4.37939H426.279C447.843 4.37939 465.32 20.9023 465.32 41.2906H465.32Z" fill="white"/>
<path d="M223.615 104.901C222.609 104.901 221.79 105.675 221.79 106.627V120.432C221.79 121.383 222.609 122.157 223.615 122.157C224.622 122.157 225.44 121.383 225.44 120.432V106.627C225.44 105.675 224.622 104.901 223.615 104.901V104.901Z" fill="#3F3D56"/>
<path d="M223.615 146.316C222.609 146.316 221.79 147.09 221.79 148.042V174.789C221.79 175.741 222.609 176.514 223.615 176.514C224.622 176.514 225.44 175.741 225.44 174.789V148.042C225.44 147.09 224.622 146.316 223.615 146.316V146.316Z" fill="#3F3D56"/>
<path d="M223.615 184.28C222.609 184.28 221.79 185.054 221.79 186.005V212.753C221.79 213.704 222.609 214.478 223.615 214.478C224.622 214.478 225.44 213.704 225.44 212.753V186.005C225.44 185.054 224.622 184.28 223.615 184.28Z" fill="#3F3D56"/>
<path d="M290.385 10.4226H255.407C255.238 10.4226 255.1 10.5525 255.1 10.7128V14.4465C255.1 14.6068 255.238 14.7367 255.407 14.7367H290.385C290.554 14.7367 290.692 14.6068 290.692 14.4465V10.7128C290.692 10.5525 290.554 10.4226 290.385 10.4226Z" fill="#E6E6E6"/>
<path d="M408.738 14.7365C410.754 14.7365 412.389 13.1913 412.389 11.2852C412.389 9.37917 410.754 7.83398 408.738 7.83398C406.722 7.83398 405.088 9.37917 405.088 11.2852C405.088 13.1913 406.722 14.7365 408.738 14.7365Z" fill="#E6E6E6"/>
<path d="M418.777 14.7365C420.793 14.7365 422.427 13.1913 422.427 11.2852C422.427 9.37917 420.793 7.83398 418.777 7.83398C416.761 7.83398 415.126 9.37917 415.126 11.2852C415.126 13.1913 416.761 14.7365 418.777 14.7365Z" fill="#E6E6E6"/>
<path d="M428.815 14.7365C430.831 14.7365 432.466 13.1913 432.466 11.2852C432.466 9.37917 430.831 7.83398 428.815 7.83398C426.799 7.83398 425.165 9.37917 425.165 11.2852C425.165 13.1913 426.799 14.7365 428.815 14.7365Z" fill="#E6E6E6"/>
<path d="M227.126 471.283L216.001 471.282L210.709 430.714L227.128 430.715L227.126 471.283Z" fill="#FFB6B6"/>
<path d="M189.012 471.044C188.666 471.596 188.483 473.376 188.483 474.017C188.483 475.989 190.174 477.587 192.259 477.587H226.71C228.132 477.587 229.286 476.497 229.286 475.152V473.796C229.286 473.796 230.99 469.72 227.481 464.697C227.481 464.697 223.12 468.63 216.604 462.469L214.682 459.178L200.772 468.796L193.062 469.693C191.376 469.889 189.88 469.663 189.012 471.044H189.012V471.044H189.012Z" fill="#2F2E41"/>
<path d="M165.606 414.935L154.482 414.901L149.326 374.317L165.745 374.368L165.606 414.935Z" fill="#FFB6B6"/>
<path d="M127.494 414.582C127.146 415.133 126.957 416.912 126.955 417.554C126.948 419.525 128.633 421.129 130.718 421.135L165.169 421.238C166.592 421.243 167.748 420.156 167.753 418.811L167.758 417.455C167.758 417.455 169.475 413.384 165.984 408.35C165.984 408.35 161.61 412.271 155.114 406.09L153.203 402.793L139.261 412.369L131.548 413.243C129.861 413.435 128.366 413.203 127.494 414.582H127.494V414.582Z" fill="#2F2E41"/>
<path d="M210.901 224.998L197.05 225.934C197.05 225.934 150.157 251.141 146.2 256.753C142.242 262.366 136.801 270.317 141.747 278.735C146.694 287.154 142.929 389.088 142.929 389.088L166.569 384.032L181.714 277.381L213.375 273.172C213.375 273.172 224.258 295.371 220.3 313.737C216.343 332.103 214.364 343.328 214.364 343.328L209.417 451.835L228.71 451.367L246.024 350.811L275.706 271.301L237.12 228.272L210.901 224.998Z" fill="#2F2E41"/>
<path d="M279.169 109.943L250.477 112.749L247.508 122.103L219.806 136.134L228.71 195.065L221.784 205.355L224.752 215.644C224.752 215.644 216.837 216.58 217.827 222.192L200.018 224.998C200.018 224.998 223.638 229.557 228.648 252.066C233.657 274.575 275.211 277.381 275.211 277.381L307.861 181.034L310.829 123.974L288.073 118.362L279.169 109.943Z" fill="#374151"/>
<path d="M264.047 106.393C276.366 106.393 286.352 96.9521 286.352 85.3056C286.352 73.6591 276.366 64.2178 264.047 64.2178C251.729 64.2178 241.743 73.6591 241.743 85.3056C241.743 96.9521 251.729 106.393 264.047 106.393Z" fill="#FFB6B6"/>
<path d="M252.455 104.331C252.455 104.331 232.668 103.395 234.646 88.4286C229.749 72.4908 234.084 62.1426 249.487 58.4955C249.487 58.4955 253.445 57.5601 254.434 57.5601C267.447 57.5601 274.222 61.3017 274.222 61.3017C274.222 61.3017 273.232 57.5969 274.222 58.5139C275.211 59.4309 276.201 61.3017 276.201 61.3017C276.201 61.3017 286.094 65.9787 286.094 75.3328C286.094 84.6869 286.094 80.9453 286.094 80.9453C286.094 80.9453 284.116 80.9453 282.137 75.3328C280.158 69.7204 267.347 73.462 267.347 73.462L268.285 75.3328L265.317 74.3974L262.349 77.2037L260.37 76.2683C260.37 76.2683 252.455 76.2683 253.445 76.2683C254.434 76.2683 253.745 82.6252 253.745 82.6252L246.519 90.2994L254.434 104.331H252.455Z" fill="#2F2E41"/>
<path d="M147.032 215.975C141.399 218.882 138.419 223.985 140.375 227.374C142.331 230.763 148.484 231.155 154.117 228.248C156.582 226.976 158.54 225.282 159.797 223.496L183.502 210.897L177.012 200.506L154.332 214.029C152.063 214.063 149.498 214.703 147.032 215.975H147.032Z" fill="#FFB6B6"/>
<path d="M226.972 136.571C226.972 136.571 217.68 133.226 214.478 137.252C211.277 141.279 190.127 190.136 190.127 190.136L159.096 205.458L167.822 219.825L207.781 207.247L234.144 161.661L226.972 136.571V136.571Z" fill="#374151"/>
<path d="M520 297.023V396.177C520 404.945 512.455 412.078 503.18 412.078H243.961C234.687 412.078 227.142 404.945 227.142 396.177V297.023C227.142 288.255 234.687 281.121 243.961 281.121H503.18C512.455 281.121 520 288.255 520 297.023Z" fill="white"/>
<path d="M520 297.023V396.177C520 404.945 512.455 412.078 503.18 412.078H243.961C234.687 412.078 227.142 404.945 227.142 396.177V297.023C227.142 288.255 234.687 281.121 243.961 281.121H503.18C512.455 281.121 520 288.255 520 297.023ZM503.18 410.208C511.377 410.208 518.021 403.926 518.021 396.177V346.187C518.021 311.285 488.095 282.992 451.179 282.992H243.961C235.765 282.992 229.121 289.274 229.121 297.023V396.177C229.121 403.926 235.765 410.208 243.961 410.208H503.18Z" fill="#3F3D56"/>
<path d="M343.504 341.026H309.646C308.793 341.026 308.098 341.682 308.098 342.489C308.098 343.296 308.793 343.953 309.646 343.953H343.504C344.357 343.953 345.052 343.296 345.052 342.489C345.052 341.682 344.357 341.026 343.504 341.026Z" fill="#3B82F6"/>
<path d="M394.952 341.026H361.094C360.241 341.026 359.546 341.682 359.546 342.489C359.546 343.296 360.241 343.953 361.094 343.953H394.952C395.805 343.953 396.5 343.296 396.5 342.489C396.5 341.682 395.805 341.026 394.952 341.026Z" fill="#3B82F6"/>
<path d="M343.504 357.027H309.646C308.793 357.027 308.098 357.683 308.098 358.49C308.098 359.297 308.793 359.954 309.646 359.954H343.504C344.357 359.954 345.052 359.297 345.052 358.49C345.052 357.683 344.357 357.027 343.504 357.027Z" fill="#3B82F6"/>
<path d="M394.952 357.027H361.094C360.241 357.027 359.546 357.683 359.546 358.49C359.546 359.297 360.241 359.954 361.094 359.954H394.952C395.805 359.954 396.5 359.297 396.5 358.49C396.5 357.683 395.805 357.027 394.952 357.027Z" fill="#3B82F6"/>
<path d="M447.948 358.49C447.948 357.683 447.254 357.027 446.4 357.027H412.543C411.689 357.027 410.995 357.683 410.995 358.49C410.995 359.297 411.689 359.954 412.543 359.954H446.4C447.254 359.954 447.948 359.297 447.948 358.49Z" fill="#3B82F6"/>
<path d="M323.716 328.249C324.57 328.249 325.264 327.593 325.264 326.786C325.264 325.979 324.57 325.323 323.716 325.323H289.859C289.005 325.323 288.311 325.979 288.311 326.786C288.311 327.593 289.005 328.249 289.859 328.249H323.716Z" fill="#3B82F6"/>
<path d="M423.426 327.654H457.283C458.137 327.654 458.831 326.998 458.831 326.191C458.831 325.384 458.137 324.727 457.283 324.727H423.426C422.572 324.727 421.878 325.384 421.878 326.191C421.878 326.998 422.572 327.654 423.426 327.654Z" fill="#3B82F6"/>
<path d="M337.98 327.962H408.173C409.027 327.962 409.721 327.306 409.721 326.499C409.721 325.691 409.027 325.035 408.173 325.035H337.98C337.126 325.035 336.431 325.691 336.431 326.499C336.431 327.306 337.126 327.962 337.98 327.962Z" fill="#3B82F6"/>
<path d="M365.597 371.565H331.74C330.886 371.565 330.192 372.221 330.192 373.028C330.192 373.835 330.886 374.492 331.74 374.492H365.597C366.451 374.492 367.145 373.835 367.145 373.028C367.145 372.221 366.451 371.565 365.597 371.565Z" fill="#3B82F6"/>
<path d="M474.945 296.276V395.429C474.945 404.197 467.4 411.331 458.126 411.331H353.251C343.976 411.331 336.431 404.197 336.431 395.429V296.276C336.431 287.507 343.976 280.374 353.251 280.374H458.126C467.4 280.374 474.945 287.507 474.945 296.276Z" fill="white"/>
<path d="M474.945 296.276V395.429C474.945 404.197 467.4 411.331 458.126 411.331H353.251C343.976 411.331 336.431 404.197 336.431 395.429V296.276C336.431 287.507 343.976 280.374 353.251 280.374H458.126C467.4 280.374 474.945 287.507 474.945 296.276ZM451.62 409.46C463.409 409.46 472.967 400.424 472.967 389.278V345.44C472.967 310.538 443.041 282.244 406.125 282.244H353.251C345.055 282.244 338.41 288.526 338.41 296.276V381.595C338.41 396.984 351.606 409.46 367.883 409.46H451.62V409.46H451.62V409.46Z" fill="#3F3D56"/>
<path d="M419.649 320.869H385.792C384.938 320.869 384.244 320.213 384.244 319.406C384.244 318.599 384.938 317.942 385.792 317.942H419.649C420.503 317.942 421.197 318.599 421.197 319.406C421.197 320.213 420.503 320.869 419.649 320.869V320.869Z" fill="#3B82F6"/>
<path d="M419.649 352.078H385.792C384.938 352.078 384.244 351.421 384.244 350.614C384.244 349.807 384.938 349.151 385.792 349.151H419.649C420.503 349.151 421.197 349.807 421.197 350.614C421.197 351.421 420.503 352.078 419.649 352.078V352.078Z" fill="#3B82F6"/>
<path d="M402.83 395.107H368.972C368.119 395.107 367.424 394.45 367.424 393.643C367.424 392.836 368.119 392.18 368.972 392.18H402.83C403.683 392.18 404.377 392.836 404.377 393.643C404.377 394.45 403.683 395.107 402.83 395.107V395.107Z" fill="#3B82F6"/>
<path d="M437.817 336.484H367.624C366.77 336.484 366.075 335.827 366.075 335.02C366.075 334.213 366.77 333.557 367.624 333.557H437.817C438.671 333.557 439.365 334.213 439.365 335.02C439.365 335.827 438.671 336.484 437.817 336.484V336.484V336.484Z" fill="#3B82F6"/>
<path d="M455.212 241.332C455.212 210.401 427.561 193.385 395.974 185.326C355.478 174.993 325.819 195.902 336.736 241.332C339.211 251.628 345.129 263.654 352.454 273.941H410.585C430.002 261.989 455.212 265.341 455.212 241.332H455.212Z" fill="#3B82F6"/>
<path d="M395.105 299.805C398.412 293.845 402.604 289.545 407.223 286.272H352.777C366.79 305.197 385.374 317.343 395.105 299.805Z" fill="#3B82F6"/>
<path d="M388.822 208.219C392.318 208.219 395.151 210.898 395.151 214.203V226.17H382.493V214.203C382.493 210.898 385.327 208.219 388.822 208.219ZM398.316 226.17V214.203C398.316 209.246 394.065 205.227 388.822 205.227C383.579 205.227 379.329 209.246 379.329 214.203V226.17C375.834 226.17 373 228.849 373 232.154V247.113C373 250.417 375.834 253.096 379.329 253.096H398.316C401.811 253.096 404.645 250.417 404.645 247.113V232.154C404.645 228.849 401.811 226.17 398.316 226.17ZM379.329 229.162H398.316C400.063 229.162 401.48 230.501 401.48 232.154V247.113C401.48 248.765 400.063 250.104 398.316 250.104H379.329C377.581 250.104 376.164 248.765 376.164 247.113V232.154C376.164 230.501 377.581 229.162 379.329 229.162Z" fill="white"/>
<path d="M298.379 277.89C297.615 283.914 300.284 289.169 304.339 289.628C308.393 290.088 312.299 285.576 313.062 279.552C313.396 276.915 313.072 274.426 312.263 272.421L315.158 246.857L302.44 245.828L300.936 271.138C299.649 272.906 298.713 275.253 298.379 277.89V277.89Z" fill="#FFB6B6"/>
<path d="M301.43 125.377C301.43 125.377 315.281 121.636 318.249 127.248C321.218 132.861 328.143 206.758 328.143 206.758L314.787 265.744L299.451 261.947L307.366 202.081L296.483 157.181L301.43 125.377Z" fill="#374151"/>
<path d="M97.8791 304.826C129.845 304.826 155.758 280.326 155.758 250.105C155.758 219.883 129.845 195.383 97.8791 195.383C65.9133 195.383 40 219.883 40 250.105C40 280.326 65.9133 304.826 97.8791 304.826Z" fill="#3B82F6"/>
<path d="M97.879 225.607C101.968 225.607 105.282 228.741 105.282 232.606V246.605H90.4758V232.606C90.4758 228.741 93.7903 225.607 97.879 225.607V225.607ZM108.984 246.605V232.606C108.984 226.808 104.012 222.107 97.879 222.107C91.746 222.107 86.7742 226.808 86.7742 232.606V246.605C82.6856 246.605 79.3711 249.739 79.3711 253.604V271.102C79.3711 274.968 82.6856 278.102 86.7742 278.102H108.984C113.072 278.102 116.387 274.968 116.387 271.102V253.604C116.387 249.739 113.072 246.605 108.984 246.605H108.984V246.605ZM86.7743 250.104H108.984C111.028 250.104 112.685 251.671 112.685 253.604V271.102C112.685 273.035 111.028 274.602 108.984 274.602H86.7743C84.7299 274.602 83.0727 273.035 83.0727 271.102V253.604C83.0727 251.671 84.7299 250.104 86.7743 250.104V250.104Z" fill="white"/>
</svg>
