<svg width="28" height="28" viewBox="0 0 28 28" fill="none" xmlns="http://www.w3.org/2000/svg">
<path d="M27.5171 9.3568C26.0026 3.4978 21.4196 0 15.2581 0H0L0.301229 0.724832C1.5946 3.83727 4.52024 5.8502 7.75487 5.85083H11.9093L11.9434 5.8502C12.1012 5.83826 12.6845 5.80117 13.5601 5.80117C14.4016 5.80117 15.2593 5.83574 16.1056 5.90427L16.1893 5.91055C19.4305 6.17836 23.8718 7.06852 26.6158 9.7824L26.651 9.81635C26.6654 9.8308 26.6803 9.84463 26.6935 9.85972L28 11.2258L27.5171 9.3568ZM27.9355 16.1091L27.9319 16.1657C27.1077 23.4656 22.1989 28 15.1218 28H5.38806V14.1792H5.88055C8.73028 14.1792 11.0487 16.6145 11.0487 19.6075V22.0542H15.3597C17.4827 22.0542 19.2709 21.3219 20.5308 19.9363C21.8134 18.5263 22.4906 16.4876 22.4906 14.0421V13.9579C22.4906 12.0644 22.0943 10.4318 21.312 9.10409L20.5816 7.86502L21.8923 8.34279C23.5186 8.93561 24.8383 9.72456 25.8131 10.6895C27.238 12.099 27.9522 13.9227 27.9355 16.1091Z" fill="url(#paint0_linear_1466_20915)"/>
<defs>
<linearGradient id="paint0_linear_1466_20915" x1="14" y1="0" x2="14" y2="28" gradientUnits="userSpaceOnUse">
<stop stop-color="#3B82F6"/>
<stop offset="1" stop-color="#38BDF8"/>
<stop offset="1" stop-color="#38BDF8"/>
</linearGradient>
</defs>
</svg>
