<svg width="560" height="481" viewBox="0 0 560 481" fill="none" xmlns="http://www.w3.org/2000/svg">
<g clip-path="url(#clip0_1238_32686)">
<path d="M391.633 473.36L383.14 473.359L379.1 441.226L391.635 441.227L391.633 473.36Z" fill="#FFB6B6"/>
<path d="M362.536 473.171C362.272 473.608 362.132 475.018 362.132 475.526C362.132 477.087 363.423 478.353 365.015 478.353H391.315C392.401 478.353 393.282 477.49 393.282 476.424V475.35C393.282 475.35 394.583 472.122 391.904 468.143C391.904 468.143 388.575 471.259 383.6 466.379L382.133 463.772L371.514 471.39L365.628 472.101C364.34 472.256 363.199 472.077 362.536 473.171H362.536H362.536Z" fill="#2F2E41"/>
<path d="M481.285 462.939L473.524 466.322L456.525 438.57L467.979 433.576L481.285 462.939Z" fill="#FFB6B6"/>
<path d="M454.619 474.361C454.558 474.865 455.015 476.209 455.225 476.674C455.872 478.101 457.575 478.743 459.03 478.109L483.063 467.628C484.055 467.195 484.502 466.055 484.061 465.082L483.616 464.1C483.616 464.1 483.468 460.632 479.372 458.064C479.372 458.064 477.62 462.237 471.054 459.761L468.633 457.963L462.085 469.156L457.001 472.151C455.889 472.806 454.771 473.097 454.619 474.361L454.619 474.361Z" fill="#2F2E41"/>
<path d="M373.176 272.299L365.625 287.853L378.461 449.319H394.514L401.114 343.403L458.726 449.319H478.417L448.684 373.771L428.297 275.262L373.176 272.299Z" fill="#2F2E41"/>
<path d="M413.606 172.549H393.695L386.393 183.789L369.922 191.516L373.502 239.986L371.706 275.326L374.167 275.256C391.739 274.753 409.303 277.557 425.61 283.997C429.793 285.65 434.179 286.571 437.954 285.646C437.954 285.646 436.522 280.026 435.089 278.621C433.657 277.216 432.941 276.055 433.657 275.23C434.373 274.406 435.805 273.704 434.373 272.299C432.941 270.894 432.941 269.124 432.941 269.124L428.644 237.878L437.238 193.623L419.335 183.789L413.606 172.549Z" fill="#374151"/>
<path d="M447.82 233.826L447.277 275.279L436.762 312.232L428.357 309.157L432.089 275.285L431.598 229.449L447.82 233.826Z" fill="#FFB6B6"/>
<path d="M436.726 318.191C437.713 312.877 435.905 308.104 432.688 307.53C429.472 306.955 426.065 310.797 425.079 316.111C424.093 321.424 425.9 326.197 429.117 326.772C432.333 327.346 435.74 323.505 436.726 318.191Z" fill="#FFB6B6"/>
<path d="M432.941 191.516C432.941 191.516 444.805 193.319 444.96 203.305C445.115 213.292 456.573 229.449 449.412 242.093L430.793 244.903L420.767 209.077L432.225 190.111" fill="#374151"/>
<path d="M378.789 226.525L355.145 260.888L325.683 286.121L320.376 279.025L342.444 252.718L367.676 214.134L378.789 226.525Z" fill="#FFB6B6"/>
<path d="M322.319 291.083C326.116 287.171 327.275 282.208 324.908 279.997C322.54 277.785 317.543 279.163 313.746 283.074C309.949 286.986 308.79 291.949 311.158 294.16C313.525 296.372 318.522 294.994 322.319 291.083Z" fill="#FFB6B6"/>
<path d="M390.019 183.146C390.019 183.146 398.928 191.039 393.471 199.471C388.014 207.903 388.555 227.578 375.495 234.294L358.357 226.62C359.801 212.768 360.643 198.405 370.017 191.274L390.206 181.586" fill="#374151"/>
<path d="M400.561 169.654C410.4 169.654 418.376 161.83 418.376 152.179C418.376 142.527 410.4 134.703 400.561 134.703C390.722 134.703 382.745 142.527 382.745 152.179C382.745 161.83 390.722 169.654 400.561 169.654Z" fill="#FFB6B6"/>
<path d="M413.645 166.537C414.627 166.701 415.779 164.368 416.88 162.096C419.184 157.339 420.649 154.315 420.761 150.04C420.856 146.397 419.824 147.353 418.82 139.254C418.489 136.582 413.836 136.587 412.889 135.319C411.29 133.176 413.744 132.292 409.764 131.005C402.31 128.594 398.939 132.34 394.205 132.662C394.086 132.67 391.739 134.922 390.428 135.038C388.132 135.242 384.819 134.891 383.334 131.459C381.945 128.25 381.025 137.628 382.266 138.788C383.32 139.773 385.138 142.246 385.184 142.426C385.237 142.63 380.862 137.876 380.132 139.835C379.606 141.245 381.26 148.499 382.597 148.771C383.714 148.999 386.448 145.386 385.831 146.868C384.401 150.305 393.001 152.498 403.296 145.599C403.661 145.354 403.316 145.744 404.59 148.771C406.196 152.589 406.558 152.796 406.53 153.847C406.47 156.123 404.727 156.794 405.236 158.289C405.649 159.5 407.261 160.437 408.471 160.192C409.836 159.916 410.07 158.259 411.058 158.289C411.905 158.314 412.909 159.565 412.999 160.827C413.187 163.486 409.174 164.217 408.471 167.806C408.074 169.832 412.744 166.386 413.645 166.537Z" fill="#2F2E41"/>
<path d="M272.611 479.149H119.528C96.5679 479.149 77.8879 460.826 77.8879 438.303V41.3457C77.8879 18.8234 96.5679 0.5 119.528 0.5H272.611C295.571 0.5 314.251 18.8234 314.251 41.3457C317.1 200.752 321.96 379.261 314.251 438.303C314.251 460.826 295.571 479.149 272.611 479.149Z" fill="#3F3D56"/>
<path d="M316.386 146.514C315.414 146.514 314.624 147.289 314.624 148.242V203.537C314.624 204.49 315.414 205.265 316.386 205.265C317.357 205.265 318.147 204.49 318.147 203.537V148.242C318.147 147.289 317.357 146.514 316.386 146.514Z" fill="#3F3D56"/>
<path d="M310.288 41.346V438.296C310.288 457.9 294.733 473.936 275.065 475.18H275.056C274.765 475.197 274.475 475.214 274.175 475.223C273.655 475.249 273.136 475.258 272.607 475.258C272.607 475.258 270.67 475.119 267.129 474.86C263.553 474.601 258.347 474.212 251.856 473.702C249.909 473.555 247.857 473.391 245.69 473.219C241.374 472.873 236.636 472.493 231.553 472.061C229.528 471.897 227.431 471.715 225.291 471.534C214.352 470.609 202.1 469.529 189.178 468.302C186.994 468.104 184.792 467.896 182.572 467.68C181.991 467.62 81.8519 442.927 81.8519 438.296V41.346C81.8519 20.93 98.7192 4.38464 119.532 4.38464H142.028C145.622 4.38464 148.511 7.13212 148.819 10.6486C148.845 10.8818 148.872 11.1151 148.916 11.3484C149.567 14.8821 152.87 17.3445 156.535 17.3445H235.605C239.269 17.3445 242.572 14.8821 243.224 11.3484C243.268 11.1151 243.294 10.8818 243.321 10.6486C243.629 7.13212 246.518 4.38464 250.112 4.38464H272.607C293.421 4.38464 310.288 20.93 310.288 41.346Z" fill="white"/>
<path d="M77.0073 105.043C76.0358 105.043 75.2457 105.818 75.2457 106.771V120.594C75.2457 121.547 76.0358 122.322 77.0073 122.322C77.9788 122.322 78.7689 121.547 78.7689 120.594V106.771C78.7689 105.818 77.9788 105.043 77.0073 105.043Z" fill="#3F3D56"/>
<path d="M77.0073 146.514C76.0358 146.514 75.2457 147.289 75.2457 148.242V175.025C75.2457 175.978 76.0358 176.753 77.0073 176.753C77.9788 176.753 78.7689 175.978 78.7689 175.025V148.242C78.7689 147.289 77.9788 146.514 77.0073 146.514Z" fill="#3F3D56"/>
<path d="M77.0073 184.529C76.0358 184.529 75.2457 185.304 75.2457 186.257V213.041C75.2457 213.994 76.0358 214.769 77.0073 214.769C77.9788 214.769 78.7689 213.994 78.7689 213.041V186.257C78.7689 185.304 77.9788 184.529 77.0073 184.529Z" fill="#3F3D56"/>
<path d="M141.415 10.436H107.726C107.543 10.436 107.395 10.5814 107.395 10.7608V14.4312C107.395 14.6106 107.543 14.756 107.726 14.756H141.415C141.598 14.756 141.746 14.6106 141.746 14.4312V10.7608C141.746 10.5814 141.598 10.436 141.415 10.436Z" fill="#E6E6E6"/>
<path d="M255.678 14.7559C257.624 14.7559 259.201 13.2086 259.201 11.2999C259.201 9.39127 257.624 7.84399 255.678 7.84399C253.732 7.84399 252.155 9.39127 252.155 11.2999C252.155 13.2086 253.732 14.7559 255.678 14.7559Z" fill="#E6E6E6"/>
<path d="M265.367 14.7559C267.313 14.7559 268.89 13.2086 268.89 11.2999C268.89 9.39127 267.313 7.84399 265.367 7.84399C263.421 7.84399 261.844 9.39127 261.844 11.2999C261.844 13.2086 263.421 14.7559 265.367 14.7559Z" fill="#E6E6E6"/>
<path d="M275.056 14.7559C277.002 14.7559 278.579 13.2086 278.579 11.2999C278.579 9.39127 277.002 7.84399 275.056 7.84399C273.11 7.84399 271.533 9.39127 271.533 11.2999C271.533 13.2086 273.11 14.7559 275.056 14.7559Z" fill="#E6E6E6"/>
<path d="M178.471 311.459L169.687 307.378C173.289 312.31 176.394 320.012 178.056 326.142C180.87 320.432 185.406 313.446 189.897 309.273L180.613 311.616C186.334 284.114 207.85 264.371 232.49 264.371L232.839 263.377C207.102 263.377 184.312 282.847 178.471 311.459Z" fill="#3F3D56"/>
<path d="M218.901 353.363H163.399C161.045 353.363 159.13 351.484 159.13 349.175C159.13 346.866 161.045 344.987 163.399 344.987H218.901C221.255 344.987 223.17 346.866 223.17 349.175C223.17 351.484 221.255 353.363 218.901 353.363Z" fill="#3B82F6"/>
<path d="M270.783 136.318V247.297C270.783 257.111 262.644 265.096 252.639 265.096H139.501C129.496 265.096 121.356 257.111 121.356 247.297V136.318C121.356 126.504 129.496 118.52 139.501 118.52H252.639C262.644 118.52 270.783 126.504 270.783 136.318ZM252.639 263.002C261.481 263.002 268.649 255.97 268.649 247.297V191.346C268.649 152.282 236.365 120.614 196.54 120.614H139.501C130.659 120.614 123.491 127.645 123.491 136.318V247.297C123.491 255.97 130.659 263.002 139.501 263.002H252.639Z" fill="#3F3D56"/>
<path d="M211.13 163.845H174.605C173.685 163.845 172.935 163.11 172.935 162.207C172.935 161.304 173.685 160.569 174.605 160.569H211.13C212.051 160.569 212.8 161.304 212.8 162.207C212.8 163.11 212.051 163.845 211.13 163.845V163.845Z" fill="#3F3D56"/>
<path d="M211.13 198.776H174.605C173.685 198.776 172.935 198.041 172.935 197.138C172.935 196.235 173.685 195.5 174.605 195.5H211.13C212.051 195.5 212.8 196.235 212.8 197.138C212.8 198.041 212.051 198.776 211.13 198.776V198.776Z" fill="#3F3D56"/>
<path d="M192.986 246.937H156.461C155.54 246.937 154.791 246.202 154.791 245.298C154.791 244.395 155.54 243.661 156.461 243.661H192.986C193.907 243.661 194.655 244.395 194.655 245.298C194.655 246.202 193.907 246.937 192.986 246.937V246.937Z" fill="#3F3D56"/>
<path d="M230.73 181.322H155.006C154.085 181.322 153.336 180.587 153.336 179.684C153.336 178.781 154.085 178.046 155.006 178.046H230.73C231.651 178.046 232.4 178.781 232.4 179.684C232.4 180.587 231.651 181.322 230.73 181.322V181.322Z" fill="#3F3D56"/>
</g>
<defs>
<clipPath id="clip0_1238_32686">
<rect width="560" height="480" fill="white" transform="translate(0 0.5)"/>
</clipPath>
</defs>
</svg>
